<?xml version="1.0" standalone="no"?>
<!DOCTYPE svg PUBLIC "-//W3C//DTD SVG 1.1//EN" "http://www.w3.org/Graphics/SVG/1.1/DTD/svg11.dtd" >
<svg xmlns="http://www.w3.org/2000/svg" xmlns:xlink="http://www.w3.org/1999/xlink" version="1.1">
<metadata>
Created by FontForge 20200427 at Tue May 22 22:20:38 2018
 By www
alternative a
</metadata>
<defs>
<font id="MaisonNeueRedBull-Demi" horiz-adv-x="614" >
  <font-face 
    font-family="Maison Neue Red Bull Demi"
    font-weight="600"
    font-stretch="normal"
    units-per-em="1000"
    panose-1="2 11 7 4 4 0 0 0 0 0"
    ascent="755"
    descent="-245"
    x-height="530"
    cap-height="700"
    bbox="-39 -300 989 905"
    underline-thickness="100"
    underline-position="-320"
    unicode-range="U+0020-04E9"
  />
<missing-glyph horiz-adv-x="364" 
d="M33 0v666h265v-666h-265zM66 33h199v600h-199v-600z" />
    <glyph glyph-name=".notdef" horiz-adv-x="364" 
d="M33 0v666h265v-666h-265zM66 33h199v600h-199v-600z" />
    <glyph glyph-name=".null" horiz-adv-x="0" 
 />
    <glyph glyph-name="nonmarkingreturn" horiz-adv-x="333" 
 />
    <glyph glyph-name="space" unicode=" " horiz-adv-x="260" 
 />
    <glyph glyph-name="exclam" unicode="!" horiz-adv-x="395" 
d="M135 228v472h125v-472h-125zM125 0v141h145v-141h-145z" />
    <glyph glyph-name="quotedbl" unicode="&#x22;" horiz-adv-x="424" 
d="M83 459v241h99v-241h-99zM242 459v241h99v-241h-99z" />
    <glyph glyph-name="numbersign" unicode="#" horiz-adv-x="823" 
d="M751 432h-146l-28 -158h147l-18 -105h-148l-30 -169h-117l30 169h-124l-30 -169h-117l30 169h-147l19 105h147l28 158h-149l19 104h148l29 164h117l-29 -164h124l29 164h117l-29 -164h147zM460 274l28 158h-124l-28 -158h124z" />
    <glyph glyph-name="dollar" unicode="$" horiz-adv-x="651" 
d="M616 184q0 -86 -70.5 -141t-186.5 -58v-95h-60v97q-114 11 -182 72t-82 172l122 24q13 -73 47 -110t95 -46v216q-44 13 -71 22t-63 27t-56 38t-35 50.5t-15 68.5q0 84 67.5 137.5t172.5 56.5v86h60v-89q97 -11 158.5 -65t76.5 -137l-122 -25q-28 96 -113 114v-182
q57 -17 93 -31.5t78.5 -41.5t64 -67t21.5 -93zM181 523q0 -30 30 -50t88 -38v169q-53 -2 -85.5 -23.5t-32.5 -57.5zM359 96q65 2 99.5 25t34.5 62q0 42 -34.5 67t-99.5 46v-200z" />
    <glyph glyph-name="percent" unicode="%" horiz-adv-x="1042" 
d="M321 -83l-90 51l494 815l90 -53zM235 271q-84 0 -133 59t-49 160t49 160t133 59q85 0 134 -59t49 -160t-49 -160t-134 -59zM235 364q82 0 82 126t-82 126q-39 0 -60 -32.5t-21 -93.5t21 -93.5t60 -32.5zM806 -9q-84 0 -133 59t-49 160t49 160t133 59q85 0 134 -59
t49 -160t-49 -160t-134 -59zM806 84q40 0 61 32.5t21 93.5t-21 93.5t-61 32.5q-39 0 -60 -32.5t-21 -93.5t21 -93.5t60 -32.5z" />
    <glyph glyph-name="ampersand" unicode="&#x26;" horiz-adv-x="687" 
d="M669 121l-72 -86l-60 51q-67 -101 -232 -101q-118 0 -185 54.5t-67 151.5q0 120 130 200q-77 73 -77 150q0 76 56 125t143 49t142 -45.5t65 -125.5l-118 -17q-13 76 -88 76q-37 0 -58.5 -17.5t-21.5 -48.5q0 -37 52 -82l186 -159v117h113v-213zM305 97q107 0 142 67
l-183 157q-91 -49 -91 -120q0 -49 35 -76.5t97 -27.5z" />
    <glyph glyph-name="quotesingle" unicode="'" horiz-adv-x="265" 
d="M83 459v241h99v-241h-99z" />
    <glyph glyph-name="parenleft" unicode="(" horiz-adv-x="373" 
d="M285 -197q-202 223 -202 492t202 492l74 -58q-85 -107 -123.5 -209.5t-38.5 -224.5t38.5 -224.5t123.5 -209.5z" />
    <glyph glyph-name="parenright" unicode=")" horiz-adv-x="373" 
d="M88 -197l-74 58q85 107 123.5 209.5t38.5 224.5t-38.5 224.5t-123.5 209.5l74 58q202 -223 202 -492t-202 -492z" />
    <glyph glyph-name="asterisk" unicode="*" horiz-adv-x="499" 
d="M148 322l-68 59l90 106l-117 67l45 77l107 -62v131h89v-131l107 62l44 -77l-116 -67l89 -106l-67 -59l-101 122z" />
    <glyph glyph-name="plus" unicode="+" horiz-adv-x="603" 
d="M549 414v-98h-195v-211h-104v211h-197v98h197v210h104v-210h195z" />
    <glyph glyph-name="comma" unicode="," horiz-adv-x="316" 
d="M89 -133v64q28 7 39.5 23t11.5 46h-57v136h150v-120q0 -134 -144 -149z" />
    <glyph glyph-name="hyphen" unicode="-" horiz-adv-x="358" 
d="M43 239v111h271v-111h-271z" />
    <glyph glyph-name="period" unicode="." horiz-adv-x="312" 
d="M83 0v141h145v-141h-145z" />
    <glyph glyph-name="slash" unicode="/" horiz-adv-x="456" 
d="M85 -48l-77 33l363 765l76 -35z" />
    <glyph glyph-name="zero" unicode="0" horiz-adv-x="644" 
d="M322 -15q-128 0 -207.5 95t-79.5 256q0 162 79 256.5t208 94.5t208 -94.5t79 -256.5q0 -161 -79.5 -256t-207.5 -95zM322 96q79 0 123 61.5t44 178.5t-44 178.5t-123 61.5t-123 -61.5t-44 -178.5t44 -178.5t123 -61.5z" />
    <glyph glyph-name="one" unicode="1" horiz-adv-x="401" 
d="M191 0v540l-163 -98v127l172 103h111v-672h-120z" />
    <glyph glyph-name="two" unicode="2" horiz-adv-x="605" 
d="M207 170q-12 -17 -13 -60h355v-110h-490v87q0 87 38 137q40 55 172 115q96 44 131.5 75t35.5 72t-32.5 65.5t-87.5 24.5q-66 0 -104.5 -35t-44.5 -102l-119 9q8 111 79.5 175t188.5 64q105 0 172.5 -57t67.5 -144q0 -73 -47 -125.5t-153 -101.5q-85 -39 -112 -55t-37 -34
z" />
    <glyph glyph-name="three" unicode="3" horiz-adv-x="605" 
d="M313 -15q-118 0 -190 63t-85 176l117 21q11 -77 48.5 -113t109.5 -36q57 0 90 27.5t33 75.5q0 103 -130 103h-63v97h55q54 0 87 24t33 63q0 41 -30 66t-82 25q-57 0 -93 -28t-44 -78l-117 20q14 89 82.5 142.5t171.5 53.5t167.5 -52t64.5 -135q0 -45 -23.5 -80.5
t-64.5 -55.5v-2q49 -21 78 -66.5t29 -104.5q0 -89 -68 -147.5t-176 -58.5z" />
    <glyph glyph-name="four" unicode="4" horiz-adv-x="583" 
d="M354 0v126h-347v110l279 436h188v-436h86v-110h-86v-126h-120zM128 236h226v349h-2z" />
    <glyph glyph-name="five" unicode="5" horiz-adv-x="597" 
d="M305 -15q-104 0 -176.5 49.5t-95.5 140.5l115 36q31 -115 157 -115q64 0 104 35.5t40 92.5t-40 93t-104 36q-84 0 -147 -60l-110 29l66 350h388v-110h-297l-28 -149l2 -1q62 40 143 40q108 0 177.5 -65t69.5 -164q0 -106 -73.5 -172t-190.5 -66z" />
    <glyph glyph-name="six" unicode="6" horiz-adv-x="613" 
d="M347 447q105 0 173 -64.5t68 -164.5q0 -104 -72 -168.5t-183 -64.5q-140 0 -219 92t-79 253q0 158 82.5 257.5t213.5 99.5q94 0 160 -47t86 -129l-115 -30q-29 95 -129 95q-70 0 -116.5 -54t-54.5 -150h1q60 75 184 75zM332 96q59 0 97.5 33t38.5 92q0 58 -39.5 93.5
t-100.5 35.5q-62 0 -102 -35.5t-40 -93.5q0 -56 39 -90.5t107 -34.5z" />
    <glyph glyph-name="seven" unicode="7" horiz-adv-x="519" 
d="M92 0l269 560v2h-349v110h483v-102l-268 -570h-135z" />
    <glyph glyph-name="eight" unicode="8" horiz-adv-x="587" 
d="M294 -15q-124 0 -200 57.5t-76 148.5q0 60 34.5 106.5t91.5 69.5v2q-88 46 -88 134q0 79 66.5 131.5t171.5 52.5q104 0 170.5 -52.5t66.5 -131.5q0 -87 -87 -134v-2q57 -23 91 -69.5t34 -106.5q0 -91 -76 -148.5t-199 -57.5zM294 410q53 0 85 23.5t32 62.5
q0 38 -32.5 62.5t-84.5 24.5t-84.5 -24.5t-32.5 -62.5q0 -39 32 -62.5t85 -23.5zM294 101q68 0 106.5 27t38.5 76q0 47 -39 76t-106 29t-106.5 -29t-39.5 -76q0 -49 38.5 -76t107.5 -27z" />
    <glyph glyph-name="nine" unicode="9" horiz-adv-x="596" 
d="M282 687q130 0 204.5 -84.5t74.5 -236.5q0 -196 -64.5 -288.5t-201.5 -92.5q-91 0 -153.5 46t-86.5 126l114 35q31 -96 126 -96q66 0 100.5 45.5t39.5 142.5h-1q-59 -59 -163 -59q-111 0 -178.5 63t-67.5 166q0 102 72.5 167.5t184.5 65.5zM147 454q0 -58 37 -91t102 -33
q62 0 99.5 33.5t37.5 89.5q0 55 -38 89t-99 34q-64 0 -101.5 -33t-37.5 -89z" />
    <glyph glyph-name="colon" unicode=":" horiz-adv-x="312" 
d="M83 328v141h145v-141h-145zM83 0v141h145v-141h-145z" />
    <glyph glyph-name="semicolon" unicode=";" horiz-adv-x="316" 
d="M86 328v141h145v-141h-145zM89 -133v64q28 7 39.5 23t11.5 46h-57v136h150v-120q0 -134 -144 -149z" />
    <glyph glyph-name="less" unicode="&#x3c;" horiz-adv-x="552" 
d="M442 78l-389 234v77l389 234l57 -89l-311 -183l311 -183z" />
    <glyph glyph-name="equal" unicode="=" horiz-adv-x="562" 
d="M53 397v100h455v-100h-455zM53 203v100h455v-100h-455z" />
    <glyph glyph-name="greater" unicode="&#x3e;" horiz-adv-x="552" 
d="M110 78l-57 90l311 183l-311 183l57 89l389 -234v-77z" />
    <glyph glyph-name="question" unicode="?" horiz-adv-x="616" 
d="M229 212v58q0 46 23 79t75 64q51 30 70.5 53.5t19.5 54.5q0 36 -27.5 57.5t-71.5 21.5q-60 0 -93 -34.5t-38 -98.5l-124 9q3 108 72.5 173.5t182.5 65.5q95 0 159.5 -54.5t64.5 -137.5q0 -55 -29 -95.5t-93 -79.5q-45 -28 -60 -46.5t-15 -46.5v-43h-116zM217 0v141h145
v-141h-145z" />
    <glyph glyph-name="at" unicode="@" horiz-adv-x="793" 
d="M395 -75q-159 0 -250.5 97.5t-91.5 268.5q0 157 98.5 260.5t247.5 103.5q153 0 247 -96.5t94 -250.5q0 -223 -147 -223q-73 0 -98 48h-2q-40 -49 -116 -49q-60 0 -96 30.5t-36 83.5q0 48 28 76.5t91 45.5q55 15 72.5 25.5t17.5 29.5q0 15 -13.5 25t-34.5 10
q-60 0 -72 -63l-88 18q11 60 53.5 94t106.5 34t104 -38.5t40 -106.5v-123q0 -35 10.5 -49t35.5 -14q60 0 60 146q0 123 -69.5 196.5t-187.5 73.5q-113 0 -187.5 -81.5t-74.5 -205.5q0 -138 67.5 -213.5t190.5 -75.5q93 0 176 41l31 -72q-93 -46 -207 -46zM387 167
q30 0 49 16t19 41v64h-2q-5 -15 -68 -36q-44 -15 -44 -46q0 -39 46 -39z" />
    <glyph glyph-name="A" unicode="A" 
d="M490 0l-41 120h-284l-41 -120h-126l252 700h115l251 -700h-126zM203 230h208l-103 297h-2z" />
    <glyph glyph-name="B" unicode="B" horiz-adv-x="634" 
d="M75 0v700h292q91 0 148.5 -52t57.5 -134q0 -95 -75 -135v-2q47 -20 74 -63t27 -100q0 -214 -259 -214h-265zM200 415h148q100 0 100 86t-100 86h-148v-172zM200 113h155q62 0 90.5 24.5t28.5 77.5q0 98 -118 98h-156v-200z" />
    <glyph glyph-name="C" unicode="C" horiz-adv-x="645" 
d="M339 -15q-139 0 -221.5 99.5t-82.5 265.5q0 165 83 265t221 100q110 0 185 -68t89 -180l-123 -20q-13 74 -51.5 113.5t-99.5 39.5q-84 0 -131.5 -66.5t-47.5 -183.5t47.5 -183.5t131.5 -66.5q64 0 103 42t49 124l124 -20q-12 -120 -86.5 -190.5t-189.5 -70.5z" />
    <glyph glyph-name="D" unicode="D" horiz-adv-x="648" 
d="M75 0v700h233q140 0 222.5 -94t82.5 -256q0 -167 -82.5 -258.5t-224.5 -91.5h-231zM200 115h105q87 0 135 58.5t48 176.5q0 114 -48 174.5t-133 60.5h-107v-470z" />
    <glyph glyph-name="E" unicode="E" horiz-adv-x="560" 
d="M75 0v700h440v-115h-315v-171h287v-111h-287v-188h315v-115h-440z" />
    <glyph glyph-name="F" unicode="F" horiz-adv-x="553" 
d="M75 0v700h440v-115h-315v-198h292v-111h-292v-276h-125z" />
    <glyph glyph-name="G" unicode="G" horiz-adv-x="646" 
d="M339 -15q-139 0 -221.5 99t-82.5 266q0 166 82.5 265.5t221.5 99.5q108 0 183 -65.5t89 -171.5l-123 -20q-13 68 -51.5 105t-97.5 37q-84 0 -131.5 -66.5t-47.5 -183.5t47.5 -183.5t131.5 -66.5q71 0 111 41.5t40 114.5h-142v106h261v-87q0 -132 -73.5 -211t-196.5 -79z
" />
    <glyph glyph-name="H" unicode="H" horiz-adv-x="657" 
d="M75 0v700h125v-284h257v284h125v-700h-125v302h-257v-302h-125z" />
    <glyph glyph-name="I" unicode="I" horiz-adv-x="275" 
d="M75 0v700h125v-700h-125z" />
    <glyph glyph-name="J" unicode="J" horiz-adv-x="540" 
d="M248 -15q-101 0 -159.5 55.5t-65.5 161.5l120 16q6 -63 30.5 -90.5t74.5 -27.5q97 0 97 129v471h125v-483q0 -106 -62 -169t-160 -63z" />
    <glyph glyph-name="K" unicode="K" horiz-adv-x="627" 
d="M75 0v700h125v-312h2l257 312h147l-257 -309l280 -391h-150l-207 297h-2l-70 -85v-212h-125z" />
    <glyph glyph-name="L" unicode="L" horiz-adv-x="531" 
d="M75 0v700h125v-585h303v-115h-428z" />
    <glyph glyph-name="M" unicode="M" horiz-adv-x="855" 
d="M75 0v700h144l207 -500h2l208 500h144v-700h-123v478h-2l-201 -478h-53l-201 478h-2v-478h-123z" />
    <glyph glyph-name="N" unicode="N" horiz-adv-x="674" 
d="M75 0v700h133l264 -489h2v489h125v-700h-133l-264 489h-2v-489h-125z" />
    <glyph glyph-name="O" unicode="O" horiz-adv-x="677" 
d="M339 -15q-138 0 -221 100t-83 265t83 265t221 100q137 0 220 -100t83 -265t-83 -265t-220 -100zM339 100q83 0 130.5 67t47.5 183t-47.5 183t-130.5 67t-131 -67t-48 -183q0 -117 47.5 -183.5t131.5 -66.5z" />
    <glyph glyph-name="P" unicode="P" 
d="M75 0v700h281q111 0 175.5 -60.5t64.5 -164.5q0 -106 -64 -165t-177 -59h-155v-251h-125zM200 366h153q56 0 87 28.5t31 80.5q0 110 -118 110h-153v-219z" />
    <glyph glyph-name="Q" unicode="Q" horiz-adv-x="683" 
d="M647 47l-66 -62l-60 62q-76 -62 -182 -62q-138 0 -221 100t-83 265t83 265t221 100q137 0 220 -100t83 -265q0 -140 -61 -235zM339 100q57 0 98 32l-136 140l67 61l124 -127q25 61 25 144q0 116 -47.5 183t-130.5 67t-131 -67t-48 -183q0 -117 47.5 -183.5t131.5 -66.5z
" />
    <glyph glyph-name="R" unicode="R" horiz-adv-x="617" 
d="M435 272v-1l147 -271h-137l-139 260h-106v-260h-125v700h274q110 0 173.5 -58.5t63.5 -160.5q0 -79 -39.5 -133.5t-111.5 -75.5zM200 375h135q126 0 126 106q0 104 -126 104h-135v-210z" />
    <glyph glyph-name="S" unicode="S" horiz-adv-x="595" 
d="M318 -15q-127 0 -201.5 63t-91.5 183l123 25q13 -83 53 -120t119 -37q58 0 91.5 22.5t33.5 61.5q0 42 -34.5 69t-128.5 58q-124 41 -174 88.5t-50 123.5q0 85 64.5 139t167.5 54q101 0 172.5 -56t88.5 -149l-122 -26q-31 117 -139 117q-49 0 -78.5 -21.5t-29.5 -57.5
q0 -31 30 -52.5t113 -48.5q133 -45 189 -99t56 -138q0 -89 -69.5 -144t-182.5 -55z" />
    <glyph glyph-name="T" unicode="T" horiz-adv-x="597" 
d="M236 0v585h-208v115h541v-115h-208v-585h-125z" />
    <glyph glyph-name="U" unicode="U" horiz-adv-x="664" 
d="M331 -15q-124 0 -192.5 64.5t-68.5 180.5v470h125v-462q0 -138 136 -138q138 0 138 136v464h125v-470q0 -116 -69 -180.5t-194 -64.5z" />
    <glyph glyph-name="V" unicode="V" horiz-adv-x="629" 
d="M251 0l-253 700h133l183 -526h2l183 526h132l-253 -700h-127z" />
    <glyph glyph-name="W" unicode="W" horiz-adv-x="885" 
d="M156 0l-143 700h129l97 -499h2l143 499h117l143 -499h2l98 499h127l-141 -700h-138l-149 511h-2l-148 -511h-137z" />
    <glyph glyph-name="X" unicode="X" horiz-adv-x="592" 
d="M3 0l219 355l-213 345h142l144 -252h2l144 252h142l-214 -345l219 -355h-141l-150 262h-2l-150 -262h-142z" />
    <glyph glyph-name="Y" unicode="Y" horiz-adv-x="587" 
d="M231 0v287l-238 413h136l163 -301h2l163 301h136l-237 -413v-287h-125z" />
    <glyph glyph-name="Z" unicode="Z" horiz-adv-x="585" 
d="M38 0v104l354 479v2h-341v115h496v-104l-354 -479v-2h350v-115h-505z" />
    <glyph glyph-name="bracketleft" unicode="[" horiz-adv-x="317" 
d="M75 -182v912h228v-102h-121v-707h121v-103h-228z" />
    <glyph glyph-name="backslash" unicode="\" horiz-adv-x="456" 
d="M371 -48l-362 763l76 35l363 -765z" />
    <glyph glyph-name="bracketright" unicode="]" horiz-adv-x="317" 
d="M242 -182h-228v103h121v707h-121v102h228v-912z" />
    <glyph glyph-name="asciicircum" unicode="^" horiz-adv-x="595" 
d="M531 325h-115l-118 270l-119 -270h-116l175 375h119z" />
    <glyph glyph-name="underscore" unicode="_" horiz-adv-x="604" 
d="M43 -167v94h518v-94h-518z" />
    <glyph glyph-name="grave" unicode="`" horiz-adv-x="322" 
d="M168 590l-115 130h130l85 -130h-100z" />
    <glyph glyph-name="a" unicode="a" horiz-adv-x="518" 
d="M213 -15q-79 0 -126.5 42.5t-47.5 113.5q0 67 43.5 106t145.5 63q67 17 92 32t25 40q0 28 -22.5 44t-62.5 16q-45 0 -74.5 -25t-37.5 -69l-113 24q13 78 74.5 125.5t150.5 47.5q96 0 152 -51.5t56 -140.5v-353h-109v46h-2q-42 -61 -144 -61zM233 89q52 0 84.5 25t32.5 65
v91h-2q-14 -27 -92 -49q-55 -14 -78 -30.5t-23 -41.5q0 -60 78 -60z" />
    <glyph glyph-name="b" unicode="b" horiz-adv-x="592" 
d="M320 -15q-99 0 -151 64h-2v-49h-112v730h120v-239h2q54 54 142 54q104 0 171 -78.5t67 -201.5t-66.5 -201.5t-170.5 -78.5zM300 95q64 0 100.5 45.5t36.5 124.5t-36 124.5t-99 45.5q-55 0 -91 -36.5t-36 -90.5v-85q0 -55 36 -91.5t89 -36.5z" />
    <glyph glyph-name="c" unicode="c" horiz-adv-x="556" 
d="M288 -15q-112 0 -182.5 77.5t-70.5 202.5t70.5 202.5t182.5 77.5q95 0 159 -53.5t79 -144.5l-115 -21q-9 53 -41 81t-82 28q-61 0 -97 -46t-36 -124t36 -124t97 -46q50 0 82 28t41 81l115 -21q-15 -91 -79 -144.5t-159 -53.5z" />
    <glyph glyph-name="d" unicode="d" horiz-adv-x="592" 
d="M272 -15q-104 0 -170.5 78.5t-66.5 201.5t67 201.5t171 78.5q88 0 142 -54h2v239h120v-730h-112v49h-2q-52 -64 -151 -64zM292 95q53 0 89 36.5t36 91.5v85q0 54 -36 90.5t-91 36.5q-63 0 -99 -45.5t-36 -124.5t36.5 -124.5t100.5 -45.5z" />
    <glyph glyph-name="e" unicode="e" horiz-adv-x="562" 
d="M284 -15q-111 0 -180 77.5t-69 202.5q0 124 68.5 202t178.5 78t177.5 -75.5t67.5 -198.5v-41h-371q3 -64 37.5 -102.5t90.5 -38.5q44 0 76.5 20.5t62.5 66.5l88 -64q-73 -127 -227 -127zM157 318h251q-3 56 -36 89.5t-89 33.5q-52 0 -87.5 -35t-38.5 -88z" />
    <glyph glyph-name="f" unicode="f" horiz-adv-x="377" 
d="M109 0v423h-99v107h99v55q0 64 38.5 100.5t109.5 36.5h92v-108h-78q-42 0 -42 -41v-43h139v-107h-139v-423h-120z" />
    <glyph glyph-name="g" unicode="g" horiz-adv-x="587" 
d="M298 -240q-76 0 -137.5 35t-94.5 96l95 64q29 -47 60.5 -67t77.5 -20q57 0 89 35t32 95v48h-2q-20 -28 -60 -44.5t-86 -16.5q-103 0 -170 79t-67 201q0 120 67 198.5t171 78.5q93 0 145 -58h2v46h117v-537q0 -107 -65 -170t-174 -63zM292 95q53 0 89 37t36 91v81
q0 55 -36 91t-91 36q-63 0 -99 -44.5t-36 -121.5q0 -79 36.5 -124.5t100.5 -45.5z" />
    <glyph glyph-name="h" unicode="h" horiz-adv-x="566" 
d="M55 0v730h120v-247h2q23 29 60.5 45.5t80.5 16.5q89 0 143.5 -54.5t54.5 -143.5v-347h-120v321q0 53 -28.5 82.5t-80.5 29.5t-82 -30.5t-30 -81.5v-321h-120z" />
    <glyph glyph-name="i" unicode="i" horiz-adv-x="230" 
d="M52 620v121h126v-121h-126zM55 0v530h120v-530h-120z" />
    <glyph glyph-name="j" unicode="j" horiz-adv-x="246" 
d="M68 620v121h126v-121h-126zM-27 -192v111h51q26 0 36.5 8.5t10.5 29.5v573h120v-577q0 -77 -38 -111t-121 -34h-59z" />
    <glyph glyph-name="k" unicode="k" horiz-adv-x="544" 
d="M55 0v730h120v-413h2l188 213h157l-193 -210l201 -320h-136l-143 239h-2l-74 -83v-156h-120z" />
    <glyph glyph-name="l" unicode="l" horiz-adv-x="230" 
d="M55 0v730h120v-730h-120z" />
    <glyph glyph-name="m" unicode="m" horiz-adv-x="830" 
d="M55 0v530h113v-45h2q46 60 135 60q41 0 78 -18t59 -48h2q55 66 143 66q85 0 139 -53.5t54 -134.5v-357h-117v336q0 46 -25.5 72.5t-68.5 26.5t-69 -28.5t-26 -75.5v-331h-113v336q0 46 -25.5 72.5t-68.5 26.5t-69 -28.5t-26 -75.5v-331h-117z" />
    <glyph glyph-name="n" unicode="n" horiz-adv-x="566" 
d="M55 0v530h115v-47h2q23 28 63 45t83 17q90 0 144 -56t54 -149v-340h-120v321q0 53 -28.5 82.5t-80.5 29.5t-82 -30.5t-30 -81.5v-321h-120z" />
    <glyph glyph-name="o" unicode="o" horiz-adv-x="585" 
d="M292 -15q-115 0 -186 77.5t-71 202.5t71 202.5t186 77.5t186.5 -77.5t71.5 -202.5t-71.5 -202.5t-186.5 -77.5zM292 95q65 0 101.5 45.5t36.5 124.5t-36.5 124.5t-101.5 45.5q-64 0 -100.5 -45t-36.5 -125t36.5 -125t100.5 -45z" />
    <glyph glyph-name="p" unicode="p" horiz-adv-x="592" 
d="M55 -225v755h117v-42h2q55 57 145 57q104 0 171 -78.5t67 -201.5t-66.5 -201.5t-170.5 -78.5q-93 0 -143 57h-2v-267h-120zM300 95q64 0 100.5 45.5t36.5 124.5t-36 124.5t-99 45.5q-55 0 -91 -36.5t-36 -90.5v-85q0 -55 36 -91.5t89 -36.5z" />
    <glyph glyph-name="q" unicode="q" horiz-adv-x="592" 
d="M537 -225h-120v267h-2q-50 -57 -143 -57q-104 0 -170.5 78.5t-66.5 201.5t67 201.5t171 78.5q90 0 145 -57h2v42h117v-755zM292 95q53 0 89 36.5t36 91.5v85q0 54 -36 90.5t-91 36.5q-63 0 -99 -45.5t-36 -124.5t36.5 -124.5t100.5 -45.5z" />
    <glyph glyph-name="r" unicode="r" horiz-adv-x="356" 
d="M55 0v530h113v-46h2q36 56 112 56q36 0 64 -9l-21 -117q-33 9 -57 9q-93 0 -93 -126v-297h-120z" />
    <glyph glyph-name="s" unicode="s" horiz-adv-x="500" 
d="M268 -15q-101 0 -164.5 49t-78.5 140l109 28q13 -60 44.5 -87.5t89.5 -27.5q43 0 68 14.5t25 39.5q0 31 -29.5 49.5t-96.5 38.5q-91 26 -137 59.5t-46 99.5q0 68 55.5 112.5t139.5 44.5q80 0 140 -43t78 -113l-110 -31q-27 85 -108 85q-37 0 -59 -14.5t-22 -38.5
q0 -21 25 -34.5t81 -29.5q47 -14 78.5 -26.5t62.5 -33t46.5 -50.5t15.5 -70q0 -73 -56.5 -117t-150.5 -44z" />
    <glyph glyph-name="t" unicode="t" horiz-adv-x="371" 
d="M348 423h-131v-263q0 -26 12 -35.5t44 -9.5h53v-115h-64q-89 0 -127 35t-38 119v269h-87v107h87v129h120v-129h131v-107z" />
    <glyph glyph-name="u" unicode="u" horiz-adv-x="559" 
d="M240 -15q-90 0 -140 52t-50 146v347h120v-322q0 -113 106 -113q49 0 78.5 31t29.5 82v322h120v-530h-116v47h-2q-51 -62 -146 -62z" />
    <glyph glyph-name="v" unicode="v" horiz-adv-x="561" 
d="M225 0l-222 530h128l148 -371h2l148 371h128l-222 -530h-110z" />
    <glyph glyph-name="w" unicode="w" horiz-adv-x="782" 
d="M140 0l-122 530h119l77 -364h2l122 364h106l122 -364h2l77 364h119l-122 -530h-118l-132 388h-2l-132 -388h-118z" />
    <glyph glyph-name="x" unicode="x" horiz-adv-x="512" 
d="M-2 0l185 269l-180 261h141l111 -173h2l110 173h142l-181 -261l185 -269h-141l-115 180h-2l-115 -180h-142z" />
    <glyph glyph-name="y" unicode="y" horiz-adv-x="536" 
d="M101 -225l109 255l-207 500h125l139 -357h2l140 357h124l-309 -755h-123z" />
    <glyph glyph-name="z" unicode="z" horiz-adv-x="522" 
d="M27 0v99l293 320v2h-284v109h448v-99l-293 -320v-2h304v-109h-468z" />
    <glyph glyph-name="braceleft" unicode="{" horiz-adv-x="377" 
d="M286 -182q-80 0 -115.5 36t-35.5 117v187q0 34 -11.5 46.5t-42.5 12.5h-28v135h28q32 0 43 12.5t11 46.5v166q0 82 35.5 117.5t115.5 35.5h77v-107h-60q-34 0 -47.5 -17t-13.5 -59v-163q0 -45 -23 -72t-57 -27v-2q34 0 57 -26.5t23 -71.5v-183q0 -42 13.5 -59t47.5 -17
h60v-108h-77z" />
    <glyph glyph-name="bar" unicode="|" horiz-adv-x="270" 
d="M93 -300v1075h84v-1075h-84z" />
    <glyph glyph-name="braceright" unicode="}" horiz-adv-x="377" 
d="M91 -182h-77v108h60q34 0 47.5 17t13.5 59v183q0 45 23 71.5t57 26.5v2q-34 0 -57 27t-23 72v163q0 42 -13.5 59t-47.5 17h-60v107h77q80 0 115.5 -35.5t35.5 -117.5v-166q0 -34 11 -46.5t43 -12.5h28v-135h-28q-31 0 -42.5 -12.5t-11.5 -46.5v-187q0 -81 -35.5 -117
t-115.5 -36z" />
    <glyph glyph-name="asciitilde" unicode="~" horiz-adv-x="685" 
d="M164 253l-111 39q43 159 179 159q32 0 67 -12.5t58.5 -27t49.5 -27t44 -12.5q46 0 70 79l111 -39q-43 -159 -178 -159q-33 0 -67.5 12.5t-58.5 27t-50 27t-44 12.5q-46 0 -70 -79z" />
    <glyph glyph-name="uni00A0" unicode="&#xa0;" horiz-adv-x="260" 
 />
    <glyph glyph-name="exclamdown" unicode="&#xa1;" horiz-adv-x="315" 
d="M85 530h145v-141h-145v141zM95 302h125v-472h-125v472z" />
    <glyph glyph-name="cent" unicode="&#xa2;" horiz-adv-x="618" 
d="M354 96q94 14 111 105l113 -22q-14 -81 -74.5 -132.5t-149.5 -59.5v-97h-60v96q-111 9 -180 85t-69 194t69 194t180 85v87h60v-88q89 -8 149.5 -59.5t74.5 -132.5l-113 -22q-19 91 -111 105v-338zM162 265q0 -71 35.5 -116.5t96.5 -53.5v340q-61 -8 -96.5 -53.5
t-35.5 -116.5z" />
    <glyph glyph-name="sterling" unicode="&#xa3;" horiz-adv-x="624" 
d="M287 118v-2h289v-116h-513v116h46q48 0 75.5 27t27.5 71q0 35 -20 73h-129v102h65q-47 67 -47 126q0 91 67.5 145.5t180.5 54.5q112 0 184 -55.5t82 -150.5l-123 -20q-16 111 -142 111q-55 0 -87 -24.5t-32 -66.5q0 -47 51 -120h213v-102h-162q13 -34 13 -65
q0 -65 -39 -104z" />
    <glyph glyph-name="currency" unicode="&#xa4;" horiz-adv-x="583" 
d="M525 330q0 -84 -45 -148l68 -66l-44 -43l-65 65q-63 -52 -148 -52q-84 0 -148 51l-64 -64l-44 42l67 67q-45 62 -45 148q0 82 43 146l-65 66l44 43l62 -63q64 53 150 53t150 -54l64 64l43 -43l-66 -66q43 -64 43 -146zM292 196q53 0 83 35t30 98q0 64 -30 100t-83 36
q-55 0 -85 -35.5t-30 -100.5q0 -64 30 -98.5t85 -34.5z" />
    <glyph glyph-name="yen" unicode="&#xa5;" horiz-adv-x="607" 
d="M603 700l-203 -353h159v-95h-193v-55h193v-95h-193v-102h-125v102h-197v95h197v55h-197v95h162l-203 353h136l163 -301h2l163 301h136z" />
    <glyph glyph-name="brokenbar" unicode="&#xa6;" horiz-adv-x="270" 
d="M93 350v425h84v-425h-84zM93 -300v425h84v-425h-84z" />
    <glyph glyph-name="section" unicode="&#xa7;" horiz-adv-x="649" 
d="M491 107q50 -50 50 -117q0 -78 -58 -130t-148 -52q-94 0 -153 52.5t-67 136.5l121 14q13 -89 97 -89q39 0 61 19t22 49q0 29 -22.5 48.5t-81.5 43.5l-99 40q-77 31 -108.5 68.5t-31.5 89.5q0 74 85 136q-50 50 -50 117q0 78 58 130t148 52q94 0 153 -52t67 -136l-121 -15
q-13 90 -97 90q-38 0 -60.5 -19t-22.5 -50q0 -29 22.5 -48.5t81.5 -43.5l99 -40q77 -31 108.5 -68t31.5 -90q0 -75 -85 -136zM278 216l109 -44l20 -9q50 36 50 74q0 19 -18.5 34.5t-67.5 35.5l-108 44l-21 9q-50 -36 -50 -74q0 -19 18 -34t68 -36z" />
    <glyph glyph-name="dieresis" unicode="&#xa8;" horiz-adv-x="423" 
d="M53 580v116h118v-116h-118zM251 580v116h118v-116h-118z" />
    <glyph glyph-name="copyright" unicode="&#xa9;" horiz-adv-x="702" 
d="M351 16q-133 0 -220.5 88t-87.5 219t87.5 219.5t220.5 88.5t220.5 -88.5t87.5 -219.5t-87.5 -219t-220.5 -88zM351 80q103 0 170.5 71t67.5 172q0 103 -67.5 173.5t-170.5 70.5t-170.5 -70.5t-67.5 -173.5q0 -102 67.5 -172.5t170.5 -70.5zM356 144q-70 0 -114.5 50.5
t-44.5 129.5t44.5 129t114.5 50q59 0 100.5 -35t48.5 -91l-74 -15q-12 68 -75 68q-36 0 -57 -28.5t-21 -77.5t21 -77.5t57 -28.5q63 0 75 67l74 -15q-7 -56 -48.5 -91t-100.5 -35z" />
    <glyph glyph-name="ordfeminine" unicode="&#xaa;" horiz-adv-x="281" 
d="M108 417q-43 0 -68.5 21.5t-25.5 57.5q0 37 25 58t82 33q33 7 45 13.5t12 17.5q0 26 -40 26q-46 0 -55 -44l-71 13q6 41 40.5 67.5t83.5 26.5q54 0 86 -28.5t32 -75.5v-179h-66v24h-1q-23 -31 -79 -31zM124 480q24 0 40 13t16 32v31h-1q-5 -11 -42 -21q-27 -7 -37.5 -14
t-10.5 -18q0 -23 35 -23z" />
    <glyph glyph-name="guillemotleft" unicode="&#xab;" horiz-adv-x="516" 
d="M175 86l-112 191l112 191h107l-114 -191l114 -191h-107zM356 86l-112 191l112 191h107l-114 -191l114 -191h-107z" />
    <glyph glyph-name="logicalnot" unicode="&#xac;" horiz-adv-x="647" 
d="M469 157v178h-416v115h541v-293h-125z" />
    <glyph glyph-name="uni00AD" unicode="&#xad;" horiz-adv-x="358" 
d="M43 239v111h271v-111h-271z" />
    <glyph glyph-name="registered" unicode="&#xae;" horiz-adv-x="702" 
d="M351 631q133 0 220.5 -88.5t87.5 -219.5t-87.5 -219t-220.5 -88t-220.5 88t-87.5 219t87.5 219.5t220.5 88.5zM351 80q103 0 170.5 71t67.5 172q0 103 -67.5 173.5t-170.5 70.5t-170.5 -70.5t-67.5 -173.5q0 -102 67.5 -172.5t170.5 -70.5zM502 388q0 -38 -19 -66
t-54 -40l68 -131h-86l-59 123h-39v-123h-78v345h141q61 0 93.5 -29t32.5 -79zM314 432v-94h57q24 0 37.5 13.5t13.5 36.5q0 44 -51 44h-57z" />
    <glyph glyph-name="macron" unicode="&#xaf;" horiz-adv-x="406" 
d="M53 590v78h299v-78h-299z" />
    <glyph glyph-name="degree" unicode="&#xb0;" horiz-adv-x="449" 
d="M225 340q-83 0 -137.5 52t-54.5 131t54.5 130.5t137.5 51.5q82 0 136.5 -51.5t54.5 -130.5t-54.5 -131t-136.5 -52zM225 432q41 0 66.5 25t25.5 66q0 40 -25.5 65t-66.5 25t-67 -25t-26 -65t26 -65.5t67 -25.5z" />
    <glyph glyph-name="plusminus" unicode="&#xb1;" horiz-adv-x="603" 
d="M250 212v184h-197v98h197v184h104v-184h195v-98h-195v-184h-104zM54 153h496v-101h-496v101z" />
    <glyph glyph-name="acute" unicode="&#xb4;" horiz-adv-x="322" 
d="M53 590l85 130h130l-115 -130h-100z" />
    <glyph glyph-name="paragraph" unicode="&#xb6;" horiz-adv-x="648" 
d="M175 -136v525q-64 2 -108 45t-44 110q0 73 44 114.5t112 41.5h385v-836h-125v719h-139v-719h-125z" />
    <glyph glyph-name="periodcentered" unicode="&#xb7;" horiz-adv-x="252" 
d="M53 307v141h145v-141h-145z" />
    <glyph glyph-name="cedilla" unicode="&#xb8;" horiz-adv-x="330" 
d="M176 -37q43 0 71.5 -26.5t28.5 -67.5q0 -47 -31 -75t-83 -28q-61 0 -109 40l42 56q34 -28 64 -28q20 0 32.5 11t12.5 28q0 16 -12 25.5t-32 9.5q-30 0 -51 -24l-51 23l68 124l53 -23l-29 -48q12 3 26 3z" />
    <glyph glyph-name="ordmasculine" unicode="&#xba;" horiz-adv-x="310" 
d="M155 417q-63 0 -103 41t-40 104t40 104t103 41t103 -41t40 -104t-40 -104t-103 -41zM155 488q30 0 47.5 20t17.5 54t-17.5 54t-47.5 20t-47.5 -20t-17.5 -54t17.5 -54t47.5 -20z" />
    <glyph glyph-name="guillemotright" unicode="&#xbb;" horiz-adv-x="516" 
d="M160 86h-107l114 191l-114 191h107l112 -191zM341 86h-107l114 191l-114 191h107l112 -191z" />
    <glyph glyph-name="onequarter" unicode="&#xbc;" horiz-adv-x="852" 
d="M184 -78l-78 44l487 808l77 -46zM125 280v325l-103 -60v92l109 63h86v-420h-92zM696 0v68h-223v85l167 267h148v-268h53v-84h-53v-68h-92zM567 152h129v206h-1z" />
    <glyph glyph-name="onehalf" unicode="&#xbd;" horiz-adv-x="867" 
d="M593 774l77 -46l-486 -806l-78 44zM125 280v325l-103 -60v92l109 63h86v-420h-92zM632 113q-10 -10 -11 -29h216v-84h-313v62q0 59 26 89q27 34 108 68q54 24 72 40t18 40q0 22 -17 35.5t-45 13.5q-34 0 -54 -19.5t-22 -55.5l-90 6q3 69 48 109.5t118 40.5
q68 0 111 -36.5t43 -93.5q0 -47 -28 -79t-96 -62q-71 -31 -84 -45z" />
    <glyph glyph-name="threequarters" unicode="&#xbe;" horiz-adv-x="941" 
d="M273 -78l-78 44l487 808l77 -46zM193 271q-72 0 -117.5 39.5t-53.5 109.5l88 17q12 -84 83 -84q29 0 45.5 14.5t16.5 39.5q0 53 -65 53h-42v73h35q61 0 61 46q0 22 -16 35t-42 13q-59 0 -70 -59l-89 15q9 57 52 91.5t107 34.5t105.5 -34t41.5 -87t-49 -83v-1
q62 -33 62 -103q0 -56 -42.5 -93t-110.5 -37zM785 0v68h-223v85l167 267h148v-268h53v-84h-53v-68h-92zM656 152h129v206h-1z" />
    <glyph glyph-name="questiondown" unicode="&#xbf;" horiz-adv-x="616" 
d="M399 530v-141h-145v141h145zM387 318v-58q0 -46 -23 -79t-75 -64q-51 -30 -70.5 -53.5t-19.5 -54.5q0 -36 27.5 -57.5t71.5 -21.5q60 0 93 34.5t38 98.5l124 -9q-3 -108 -72.5 -173.5t-182.5 -65.5q-95 0 -159.5 54.5t-64.5 137.5q0 55 29 95.5t93 79.5q45 28 60 46.5
t15 46.5v43h116z" />
    <glyph glyph-name="Agrave" unicode="&#xc0;" 
d="M369 760h-100l-115 130h130zM490 0l-41 120h-284l-41 -120h-126l252 700h115l251 -700h-126zM203 230h208l-103 297h-2z" />
    <glyph glyph-name="Aacute" unicode="&#xc1;" 
d="M460 890l-115 -130h-100l85 130h130zM490 0l-41 120h-284l-41 -120h-126l252 700h115l251 -700h-126zM203 230h208l-103 297h-2z" />
    <glyph glyph-name="Acircumflex" unicode="&#xc2;" 
d="M308 829l-71 -89l-65 51l69 87h134l68 -87l-65 -51zM490 0l-41 120h-284l-41 -120h-126l252 700h115l251 -700h-126zM203 230h208l-103 297h-2z" />
    <glyph glyph-name="Atilde" unicode="&#xc3;" 
d="M246 794q-28 0 -35 -34h-62q2 51 28 80t67 29q29 0 69.5 -19.5t55.5 -19.5q28 0 35 34h62q-2 -52 -27.5 -80.5t-66.5 -28.5q-29 0 -70 19.5t-56 19.5zM490 0l-41 120h-284l-41 -120h-126l252 700h115l251 -700h-126zM203 230h208l-103 297h-2z" />
    <glyph glyph-name="Adieresis" unicode="&#xc4;" 
d="M268 866v-116h-118v116h118zM466 866v-116h-118v116h118zM490 0l-41 120h-284l-41 -120h-126l252 700h115l251 -700h-126zM203 230h208l-103 297h-2z" />
    <glyph glyph-name="Aring" unicode="&#xc5;" 
d="M490 0l-41 120h-284l-41 -120h-126l237 657q-67 36 -67 110q0 55 39.5 91t100.5 36t101 -36t40 -91q0 -75 -68 -110l235 -657h-126zM308 834q-30 0 -48.5 -19t-18.5 -48t18.5 -48t48.5 -19t49 19t19 48t-19 48t-49 19zM203 230h208l-103 297h-2z" />
    <glyph glyph-name="AE" unicode="&#xc6;" horiz-adv-x="863" 
d="M560 109h258v-109h-377v126h-255l-52 -126h-136l299 700h520v-110h-257v-179h230v-106h-230v-196zM230 233h211v357h-63z" />
    <glyph glyph-name="Ccedilla" unicode="&#xc7;" horiz-adv-x="645" 
d="M615 246q-11 -112 -78 -182t-171 -78l-25 -41q12 3 26 3q43 0 71.5 -26.5t28.5 -67.5q0 -47 -31 -75t-83 -28q-61 0 -109 40l42 56q34 -28 64 -28q20 0 32.5 11t12.5 28q0 16 -12 25.5t-32 9.5q-30 0 -51 -24l-51 23l52 95q-123 14 -194.5 111.5t-71.5 251.5
q0 165 83 265t221 100q110 0 185 -68t89 -180l-123 -20q-13 74 -51.5 113.5t-99.5 39.5q-84 0 -131.5 -66.5t-47.5 -183.5t47.5 -183.5t131.5 -66.5q64 0 103 42t49 124z" />
    <glyph glyph-name="Egrave" unicode="&#xc8;" horiz-adv-x="560" 
d="M265 760l-115 130h130l85 -130h-100zM75 0v700h440v-115h-315v-171h287v-111h-287v-188h315v-115h-440z" />
    <glyph glyph-name="Eacute" unicode="&#xc9;" horiz-adv-x="560" 
d="M241 760l85 130h130l-115 -130h-100zM75 0v700h440v-115h-315v-171h287v-111h-287v-188h315v-115h-440z" />
    <glyph glyph-name="Ecircumflex" unicode="&#xca;" horiz-adv-x="560" 
d="M304 829l-71 -89l-65 51l69 87h134l68 -87l-65 -51zM515 585h-315v-171h287v-111h-287v-188h315v-115h-440v700h440v-115z" />
    <glyph glyph-name="Edieresis" unicode="&#xcb;" horiz-adv-x="560" 
d="M146 750v116h118v-116h-118zM344 750v116h118v-116h-118zM75 0v700h440v-115h-315v-171h287v-111h-287v-188h315v-115h-440z" />
    <glyph glyph-name="Igrave" unicode="&#xcc;" horiz-adv-x="275" 
d="M99 760l-115 130h130l85 -130h-100zM75 0v700h125v-700h-125z" />
    <glyph glyph-name="Iacute" unicode="&#xcd;" horiz-adv-x="275" 
d="M75 760l85 130h130l-115 -130h-100zM75 0v700h125v-700h-125z" />
    <glyph glyph-name="Icircumflex" unicode="&#xce;" horiz-adv-x="275" 
d="M205 878l68 -87l-65 -51l-70 89l-71 -89l-65 51l69 87h134zM75 0v700h125v-700h-125z" />
    <glyph glyph-name="Idieresis" unicode="&#xcf;" horiz-adv-x="275" 
d="M-20 750v116h118v-116h-118zM178 750v116h118v-116h-118zM75 0v700h125v-700h-125z" />
    <glyph glyph-name="Eth" unicode="&#xd0;" horiz-adv-x="648" 
d="M308 700q140 0 222.5 -94t82.5 -256q0 -167 -82.5 -258.5t-224.5 -91.5h-231v300h-85v101h85v299h233zM305 115q87 0 135 58.5t48 176.5q0 114 -48 174.5t-133 60.5h-107v-184h154v-101h-154v-185h105z" />
    <glyph glyph-name="Ntilde" unicode="&#xd1;" horiz-adv-x="674" 
d="M401 755q-29 0 -70 19.5t-56 19.5q-28 0 -35 -34h-62q2 51 28 80t67 29q29 0 69.5 -19.5t55.5 -19.5q28 0 35 34h62q-2 -52 -27.5 -80.5t-66.5 -28.5zM75 0v700h133l264 -489h2v489h125v-700h-133l-264 489h-2v-489h-125z" />
    <glyph glyph-name="Ograve" unicode="&#xd2;" horiz-adv-x="677" 
d="M300 775l-115 130h130l85 -130h-100zM339 -15q-138 0 -221 100t-83 265t83 265t221 100q137 0 220 -100t83 -265t-83 -265t-220 -100zM339 100q83 0 130.5 67t47.5 183t-47.5 183t-130.5 67t-131 -67t-48 -183q0 -117 47.5 -183.5t131.5 -66.5z" />
    <glyph glyph-name="Oacute" unicode="&#xd3;" horiz-adv-x="677" 
d="M276 775l85 130h130l-115 -130h-100zM339 -15q-138 0 -221 100t-83 265t83 265t221 100q137 0 220 -100t83 -265t-83 -265t-220 -100zM339 100q83 0 130.5 67t47.5 183t-47.5 183t-130.5 67t-131 -67t-48 -183q0 -117 47.5 -183.5t131.5 -66.5z" />
    <glyph glyph-name="Ocircumflex" unicode="&#xd4;" horiz-adv-x="677" 
d="M339 844l-71 -89l-65 51l69 87h134l68 -87l-65 -51zM339 715q137 0 220 -100t83 -265t-83 -265t-220 -100q-138 0 -221 100t-83 265t83 265t221 100zM339 100q83 0 130.5 67t47.5 183t-47.5 183t-130.5 67t-131 -67t-48 -183q0 -117 47.5 -183.5t131.5 -66.5z" />
    <glyph glyph-name="Otilde" unicode="&#xd5;" horiz-adv-x="677" 
d="M403 770q-29 0 -70 19.5t-56 19.5q-28 0 -35 -34h-62q2 51 28 80t67 29q29 0 69.5 -19.5t55.5 -19.5q28 0 35 34h62q-2 -52 -27.5 -80.5t-66.5 -28.5zM339 -15q-138 0 -221 100t-83 265t83 265t221 100q137 0 220 -100t83 -265t-83 -265t-220 -100zM339 100
q83 0 130.5 67t47.5 183t-47.5 183t-130.5 67t-131 -67t-48 -183q0 -117 47.5 -183.5t131.5 -66.5z" />
    <glyph glyph-name="Odieresis" unicode="&#xd6;" horiz-adv-x="677" 
d="M181 765v116h118v-116h-118zM379 765v116h118v-116h-118zM339 -15q-138 0 -221 100t-83 265t83 265t221 100q137 0 220 -100t83 -265t-83 -265t-220 -100zM339 100q83 0 130.5 67t47.5 183t-47.5 183t-130.5 67t-131 -67t-48 -183q0 -117 47.5 -183.5t131.5 -66.5z" />
    <glyph glyph-name="multiply" unicode="&#xd7;" horiz-adv-x="559" 
d="M123 114l-70 68l160 158l-160 158l70 67l156 -159l158 159l68 -67l-159 -158l159 -158l-68 -68l-158 159z" />
    <glyph glyph-name="Oslash" unicode="&#xd8;" horiz-adv-x="677" 
d="M538 637q104 -99 104 -287q0 -165 -83 -265t-220 -100q-78 0 -141 34l-30 -54l-64 35l35 63q-104 101 -104 287q0 165 83 265t221 100q78 0 141 -34l30 54l63 -35zM158 350q0 -109 42 -176l224 406q-37 23 -85 23q-84 0 -132.5 -67.5t-48.5 -185.5zM339 97q84 0 132 67.5
t48 185.5q0 109 -42 176l-224 -406q38 -23 86 -23z" />
    <glyph glyph-name="Ugrave" unicode="&#xd9;" horiz-adv-x="664" 
d="M293 760l-115 130h130l85 -130h-100zM331 -15q-124 0 -192.5 64.5t-68.5 180.5v470h125v-462q0 -138 136 -138q138 0 138 136v464h125v-470q0 -116 -69 -180.5t-194 -64.5z" />
    <glyph glyph-name="Uacute" unicode="&#xda;" horiz-adv-x="664" 
d="M269 760l85 130h130l-115 -130h-100zM331 -15q-124 0 -192.5 64.5t-68.5 180.5v470h125v-462q0 -138 136 -138q138 0 138 136v464h125v-470q0 -116 -69 -180.5t-194 -64.5z" />
    <glyph glyph-name="Ucircumflex" unicode="&#xdb;" horiz-adv-x="664" 
d="M332 829l-71 -89l-65 51l69 87h134l68 -87l-65 -51zM469 700h125v-470q0 -116 -69 -180.5t-194 -64.5q-124 0 -192.5 64.5t-68.5 180.5v470h125v-462q0 -138 136 -138q138 0 138 136v464z" />
    <glyph glyph-name="Udieresis" unicode="&#xdc;" horiz-adv-x="664" 
d="M174 750v116h118v-116h-118zM372 750v116h118v-116h-118zM331 -15q-124 0 -192.5 64.5t-68.5 180.5v470h125v-462q0 -138 136 -138q138 0 138 136v464h125v-470q0 -116 -69 -180.5t-194 -64.5z" />
    <glyph glyph-name="Yacute" unicode="&#xdd;" horiz-adv-x="587" 
d="M231 760l85 130h130l-115 -130h-100zM231 0v287l-238 413h136l163 -301h2l163 301h136l-237 -413v-287h-125z" />
    <glyph glyph-name="Thorn" unicode="&#xde;" 
d="M356 577q111 0 175.5 -60t64.5 -165t-64 -164.5t-177 -59.5h-155v-128h-125v700h125v-123h156zM353 244q56 0 87 28.5t31 80.5q0 109 -118 109h-153v-218h153z" />
    <glyph glyph-name="germandbls" unicode="&#xdf;" horiz-adv-x="561" 
d="M55 0v492q0 104 62 163.5t165 59.5q94 0 154 -51.5t60 -133.5q0 -45 -22.5 -81.5t-61.5 -57.5v-2q53 -19 83.5 -65.5t30.5 -108.5q0 -103 -64 -159t-181 -56h-42v108h32q135 0 135 113q0 49 -30 76.5t-83 27.5h-54v100h35q50 0 78 24t28 67q0 41 -27.5 66t-71.5 25
q-52 0 -79 -30t-27 -86v-491h-120z" />
    <glyph glyph-name="agrave" unicode="&#xe0;" horiz-adv-x="518" 
d="M221 605l-115 130h130l85 -130h-100zM213 -15q-79 0 -126.5 42.5t-47.5 113.5q0 67 43.5 106t145.5 63q67 17 92 32t25 40q0 28 -22.5 44t-62.5 16q-45 0 -74.5 -25t-37.5 -69l-113 24q13 78 74.5 125.5t150.5 47.5q96 0 152 -51.5t56 -140.5v-353h-109v46h-2
q-42 -61 -144 -61zM233 89q52 0 84.5 25t32.5 65v91h-2q-14 -27 -92 -49q-55 -14 -78 -30.5t-23 -41.5q0 -60 78 -60z" />
    <glyph glyph-name="aacute" unicode="&#xe1;" horiz-adv-x="518" 
d="M197 605l85 130h130l-115 -130h-100zM213 -15q-79 0 -126.5 42.5t-47.5 113.5q0 67 43.5 106t145.5 63q67 17 92 32t25 40q0 28 -22.5 44t-62.5 16q-45 0 -74.5 -25t-37.5 -69l-113 24q13 78 74.5 125.5t150.5 47.5q96 0 152 -51.5t56 -140.5v-353h-109v46h-2
q-42 -61 -144 -61zM233 89q52 0 84.5 25t32.5 65v91h-2q-14 -27 -92 -49q-55 -14 -78 -30.5t-23 -41.5q0 -60 78 -60z" />
    <glyph glyph-name="acircumflex" unicode="&#xe2;" horiz-adv-x="518" 
d="M260 674l-71 -89l-65 51l69 87h134l68 -87l-65 -51zM260 545q96 0 152 -51.5t56 -140.5v-353h-109v46h-2q-42 -61 -144 -61q-79 0 -126.5 42.5t-47.5 113.5q0 67 43.5 106t145.5 63q67 17 92 32t25 40q0 28 -22.5 44t-62.5 16q-45 0 -74.5 -25t-37.5 -69l-113 24
q13 78 74.5 125.5t150.5 47.5zM350 179v91h-2q-14 -27 -92 -49q-55 -14 -78 -30.5t-23 -41.5q0 -60 78 -60q52 0 84.5 25t32.5 65z" />
    <glyph glyph-name="atilde" unicode="&#xe3;" horiz-adv-x="518" 
d="M324 600q-29 0 -70 19.5t-56 19.5q-28 0 -35 -34h-62q2 51 28 80t67 29q29 0 69.5 -19.5t55.5 -19.5q28 0 35 34h62q-2 -52 -27.5 -80.5t-66.5 -28.5zM213 -15q-79 0 -126.5 42.5t-47.5 113.5q0 67 43.5 106t145.5 63q67 17 92 32t25 40q0 28 -22.5 44t-62.5 16
q-45 0 -74.5 -25t-37.5 -69l-113 24q13 78 74.5 125.5t150.5 47.5q96 0 152 -51.5t56 -140.5v-353h-109v46h-2q-42 -61 -144 -61zM233 89q52 0 84.5 25t32.5 65v91h-2q-14 -27 -92 -49q-55 -14 -78 -30.5t-23 -41.5q0 -60 78 -60z" />
    <glyph glyph-name="adieresis" unicode="&#xe4;" horiz-adv-x="518" 
d="M102 595v116h118v-116h-118zM300 595v116h118v-116h-118zM213 -15q-79 0 -126.5 42.5t-47.5 113.5q0 67 43.5 106t145.5 63q67 17 92 32t25 40q0 28 -22.5 44t-62.5 16q-45 0 -74.5 -25t-37.5 -69l-113 24q13 78 74.5 125.5t150.5 47.5q96 0 152 -51.5t56 -140.5v-353
h-109v46h-2q-42 -61 -144 -61zM233 89q52 0 84.5 25t32.5 65v91h-2q-14 -27 -92 -49q-55 -14 -78 -30.5t-23 -41.5q0 -60 78 -60z" />
    <glyph glyph-name="aring" unicode="&#xe5;" horiz-adv-x="518" 
d="M259 565q-55 0 -90.5 32.5t-35.5 81.5q0 50 35.5 82.5t90.5 32.5t91 -32.5t36 -82.5q0 -49 -36 -81.5t-91 -32.5zM259 619q27 0 44 17t17 43t-17 43.5t-44 17.5t-43.5 -17t-16.5 -44q0 -26 16.5 -43t43.5 -17zM213 -15q-79 0 -126.5 42.5t-47.5 113.5q0 67 43.5 106
t145.5 63q67 17 92 32t25 40q0 28 -22.5 44t-62.5 16q-45 0 -74.5 -25t-37.5 -69l-113 24q13 78 74.5 125.5t150.5 47.5q96 0 152 -51.5t56 -140.5v-353h-109v46h-2q-42 -61 -144 -61zM233 89q52 0 84.5 25t32.5 65v91h-2q-14 -27 -92 -49q-55 -14 -78 -30.5t-23 -41.5
q0 -60 78 -60z" />
    <glyph glyph-name="ae" unicode="&#xe6;" horiz-adv-x="868" 
d="M833 271v-41h-365q2 -66 36.5 -104t91.5 -38q44 0 75.5 20t63.5 69l83 -69q-75 -123 -222 -123q-118 0 -184 88q-61 -88 -195 -88q-79 0 -128 41.5t-49 111.5q0 49 23 83.5t57 50t74 28.5t74 20.5t57 23t23 39.5q0 29 -23.5 46t-64.5 17q-45 0 -76 -25t-40 -72l-109 24
q14 78 75 125t149 47q118 0 167 -73q62 73 168 73t172.5 -76t66.5 -198zM469 318h247q-3 58 -36 91.5t-86 33.5q-51 0 -86.5 -35t-38.5 -90zM353 178v94h-2q-9 -19 -42.5 -32.5t-67.5 -21t-61 -25.5t-27 -45q0 -62 81 -62q53 0 86 26t33 66z" />
    <glyph glyph-name="ccedilla" unicode="&#xe7;" horiz-adv-x="556" 
d="M288 95q50 0 82 28t41 81l115 -21q-14 -85 -70.5 -137t-140.5 -60l-25 -41q12 3 26 3q43 0 71.5 -26.5t28.5 -67.5q0 -47 -31 -75t-83 -28q-61 0 -109 40l42 56q34 -28 64 -28q20 0 32.5 11t12.5 28q0 16 -12 25.5t-32 9.5q-30 0 -51 -24l-51 23l52 96q-97 13 -156 88
t-59 189q0 125 70.5 202.5t182.5 77.5q95 0 159 -53.5t79 -144.5l-115 -21q-9 53 -41 81t-82 28q-61 0 -97 -46t-36 -124t36 -124t97 -46z" />
    <glyph glyph-name="egrave" unicode="&#xe8;" horiz-adv-x="562" 
d="M243 605l-115 130h130l85 -130h-100zM284 -15q-111 0 -180 77.5t-69 202.5q0 124 68.5 202t178.5 78t177.5 -75.5t67.5 -198.5v-41h-371q3 -64 37.5 -102.5t90.5 -38.5q44 0 76.5 20.5t62.5 66.5l88 -64q-73 -127 -227 -127zM157 318h251q-3 56 -36 89.5t-89 33.5
q-52 0 -87.5 -35t-38.5 -88z" />
    <glyph glyph-name="eacute" unicode="&#xe9;" horiz-adv-x="562" 
d="M219 605l85 130h130l-115 -130h-100zM284 -15q-111 0 -180 77.5t-69 202.5q0 124 68.5 202t178.5 78t177.5 -75.5t67.5 -198.5v-41h-371q3 -64 37.5 -102.5t90.5 -38.5q44 0 76.5 20.5t62.5 66.5l88 -64q-73 -127 -227 -127zM157 318h251q-3 56 -36 89.5t-89 33.5
q-52 0 -87.5 -35t-38.5 -88z" />
    <glyph glyph-name="ecircumflex" unicode="&#xea;" horiz-adv-x="562" 
d="M282 674l-71 -89l-65 51l69 87h134l68 -87l-65 -51zM527 271v-41h-371q3 -64 37.5 -102.5t90.5 -38.5q44 0 76.5 20.5t62.5 66.5l88 -64q-73 -127 -227 -127q-111 0 -180 77.5t-69 202.5q0 124 68.5 202t178.5 78t177.5 -75.5t67.5 -198.5zM157 318h251q-3 56 -36 89.5
t-89 33.5q-52 0 -87.5 -35t-38.5 -88z" />
    <glyph glyph-name="edieresis" unicode="&#xeb;" horiz-adv-x="562" 
d="M124 595v116h118v-116h-118zM322 595v116h118v-116h-118zM284 -15q-111 0 -180 77.5t-69 202.5q0 124 68.5 202t178.5 78t177.5 -75.5t67.5 -198.5v-41h-371q3 -64 37.5 -102.5t90.5 -38.5q44 0 76.5 20.5t62.5 66.5l88 -64q-73 -127 -227 -127zM157 318h251
q-3 56 -36 89.5t-89 33.5q-52 0 -87.5 -35t-38.5 -88z" />
    <glyph glyph-name="igrave" unicode="&#xec;" horiz-adv-x="230" 
d="M76 590l-115 130h130l85 -130h-100zM55 0v530h120v-530h-120z" />
    <glyph glyph-name="iacute" unicode="&#xed;" horiz-adv-x="230" 
d="M52 590l85 130h130l-115 -130h-100zM55 0v530h120v-530h-120z" />
    <glyph glyph-name="icircumflex" unicode="&#xee;" horiz-adv-x="230" 
d="M182 708l68 -87l-65 -51l-70 89l-71 -89l-65 51l69 87h134zM55 0v530h120v-530h-120z" />
    <glyph glyph-name="idieresis" unicode="&#xef;" horiz-adv-x="227" 
d="M-37 580v116h119v-116h-119zM145 580v116h118v-116h-118zM55 0v530h120v-530h-120z" />
    <glyph glyph-name="eth" unicode="&#xf0;" horiz-adv-x="585" 
d="M420 658q130 -192 130 -384q0 -132 -70 -210.5t-187 -78.5q-115 0 -186.5 77.5t-71.5 202.5q0 123 68.5 201.5t175.5 78.5q76 0 123 -39h2q-30 73 -71 125l-138 -41l-16 53l117 35q-33 40 -90 95v2h119q42 -46 61 -71l138 41l16 -51zM292 95q65 0 101.5 45.5t36.5 124.5
t-36.5 124.5t-101.5 45.5q-64 0 -100.5 -45.5t-36.5 -124.5t36.5 -124.5t100.5 -45.5z" />
    <glyph glyph-name="ntilde" unicode="&#xf1;" horiz-adv-x="566" 
d="M369 600q-29 0 -70 19.5t-56 19.5q-28 0 -35 -34h-62q2 51 28 80t67 29q29 0 69.5 -19.5t55.5 -19.5q28 0 35 34h62q-2 -52 -27.5 -80.5t-66.5 -28.5zM55 0v530h115v-47h2q23 28 63 45t83 17q90 0 144 -56t54 -149v-340h-120v321q0 53 -28.5 82.5t-80.5 29.5t-82 -30.5
t-30 -81.5v-321h-120z" />
    <glyph glyph-name="ograve" unicode="&#xf2;" horiz-adv-x="585" 
d="M253 605l-115 130h130l85 -130h-100zM292 -15q-115 0 -186 77.5t-71 202.5t71 202.5t186 77.5t186.5 -77.5t71.5 -202.5t-71.5 -202.5t-186.5 -77.5zM292 95q65 0 101.5 45.5t36.5 124.5t-36.5 124.5t-101.5 45.5q-64 0 -100.5 -45t-36.5 -125t36.5 -125t100.5 -45z" />
    <glyph glyph-name="oacute" unicode="&#xf3;" horiz-adv-x="585" 
d="M229 605l85 130h130l-115 -130h-100zM292 -15q-115 0 -186 77.5t-71 202.5t71 202.5t186 77.5t186.5 -77.5t71.5 -202.5t-71.5 -202.5t-186.5 -77.5zM292 95q65 0 101.5 45.5t36.5 124.5t-36.5 124.5t-101.5 45.5q-64 0 -100.5 -45t-36.5 -125t36.5 -125t100.5 -45z" />
    <glyph glyph-name="ocircumflex" unicode="&#xf4;" horiz-adv-x="585" 
d="M292 674l-71 -89l-65 51l69 87h134l68 -87l-65 -51zM292 545q115 0 186.5 -77.5t71.5 -202.5t-71.5 -202.5t-186.5 -77.5t-186 77.5t-71 202.5t71 202.5t186 77.5zM292 95q65 0 101.5 45.5t36.5 124.5t-36.5 124.5t-101.5 45.5q-64 0 -100.5 -45t-36.5 -125t36.5 -125
t100.5 -45z" />
    <glyph glyph-name="otilde" unicode="&#xf5;" horiz-adv-x="585" 
d="M356 600q-29 0 -70 19.5t-56 19.5q-28 0 -35 -34h-62q2 51 28 80t67 29q29 0 69.5 -19.5t55.5 -19.5q28 0 35 34h62q-2 -52 -27.5 -80.5t-66.5 -28.5zM292 -15q-115 0 -186 77.5t-71 202.5t71 202.5t186 77.5t186.5 -77.5t71.5 -202.5t-71.5 -202.5t-186.5 -77.5zM292 95
q65 0 101.5 45.5t36.5 124.5t-36.5 124.5t-101.5 45.5q-64 0 -100.5 -45t-36.5 -125t36.5 -125t100.5 -45z" />
    <glyph glyph-name="odieresis" unicode="&#xf6;" horiz-adv-x="585" 
d="M134 595v116h118v-116h-118zM332 595v116h118v-116h-118zM292 -15q-115 0 -186 77.5t-71 202.5t71 202.5t186 77.5t186.5 -77.5t71.5 -202.5t-71.5 -202.5t-186.5 -77.5zM292 95q65 0 101.5 45.5t36.5 124.5t-36.5 124.5t-101.5 45.5q-64 0 -100.5 -45t-36.5 -125
t36.5 -125t100.5 -45z" />
    <glyph glyph-name="divide" unicode="&#xf7;" horiz-adv-x="553" 
d="M276 488q-37 0 -62.5 25.5t-25.5 62.5t25.5 62.5t62.5 25.5q38 0 63 -25t25 -63q0 -37 -25.5 -62.5t-62.5 -25.5zM53 316v98h446v-98h-446zM276 62q-37 0 -62.5 25t-25.5 62t25.5 63t62.5 26t62.5 -25.5t25.5 -63.5q0 -37 -25.5 -62t-62.5 -25z" />
    <glyph glyph-name="oslash" unicode="&#xf8;" horiz-adv-x="585" 
d="M484 462q66 -77 66 -197q0 -125 -71 -202.5t-186 -77.5q-86 0 -147 43l-32 -40l-46 36l34 43q-67 76 -67 198q0 125 71.5 202.5t186.5 77.5q84 0 147 -44l37 47l46 -37zM151 265q0 -62 23 -105l199 255q-33 24 -80 24q-66 0 -104 -46.5t-38 -127.5zM293 91q66 0 103 46.5
t37 127.5q0 63 -22 103l-198 -253q33 -24 80 -24z" />
    <glyph glyph-name="ugrave" unicode="&#xf9;" horiz-adv-x="559" 
d="M238 590l-115 130h130l85 -130h-100zM240 -15q-90 0 -140 52t-50 146v347h120v-322q0 -113 106 -113q49 0 78.5 31t29.5 82v322h120v-530h-116v47h-2q-51 -62 -146 -62z" />
    <glyph glyph-name="uacute" unicode="&#xfa;" horiz-adv-x="559" 
d="M214 590l85 130h130l-115 -130h-100zM240 -15q-90 0 -140 52t-50 146v347h120v-322q0 -113 106 -113q49 0 78.5 31t29.5 82v322h120v-530h-116v47h-2q-51 -62 -146 -62z" />
    <glyph glyph-name="ucircumflex" unicode="&#xfb;" horiz-adv-x="559" 
d="M277 659l-71 -89l-65 51l69 87h134l68 -87l-65 -51zM384 530h120v-530h-116v47h-2q-51 -62 -146 -62q-90 0 -140 52t-50 146v347h120v-322q0 -113 106 -113q49 0 78.5 31t29.5 82v322z" />
    <glyph glyph-name="udieresis" unicode="&#xfc;" horiz-adv-x="559" 
d="M119 580v116h118v-116h-118zM317 580v116h118v-116h-118zM240 -15q-90 0 -140 52t-50 146v347h120v-322q0 -113 106 -113q49 0 78.5 31t29.5 82v322h120v-530h-116v47h-2q-51 -62 -146 -62z" />
    <glyph glyph-name="yacute" unicode="&#xfd;" horiz-adv-x="536" 
d="M205 590l85 130h130l-115 -130h-100zM101 -225l109 255l-207 500h125l139 -357h2l140 357h124l-309 -755h-123z" />
    <glyph glyph-name="thorn" unicode="&#xfe;" horiz-adv-x="592" 
d="M319 545q104 0 171 -78.5t67 -201.5t-66.5 -201.5t-170.5 -78.5q-93 0 -143 57h-2v-267h-120v955h120v-241q56 56 144 56zM300 95q64 0 100.5 45.5t36.5 124.5t-36 124.5t-99 45.5q-55 0 -91 -36.5t-36 -90.5v-85q0 -55 36 -91.5t89 -36.5z" />
    <glyph glyph-name="uni0401" unicode="&#x401;" horiz-adv-x="560" 
d="M146 750v116h118v-116h-118zM344 750v116h118v-116h-118zM75 0v700h440v-115h-315v-171h287v-111h-287v-188h315v-115h-440z" />
    <glyph glyph-name="uni0402" unicode="&#x402;" horiz-adv-x="795" 
d="M487 422q114 0 181 -61.5t67 -158.5q0 -98 -66 -157.5t-183 -59.5q-40 0 -88 5l10 111q33 -4 69 -4q133 0 133 105q0 46 -36.5 77t-97.5 31q-72 0 -135 -31v-279h-125v585h-188v115h541v-115h-228v-192q76 29 146 29z" />
    <glyph glyph-name="uni0403" unicode="&#x403;" horiz-adv-x="542" 
d="M226 760l85 130h130l-115 -130h-100zM75 0v700h438v-115h-313v-585h-125z" />
    <glyph glyph-name="uni0404" unicode="&#x404;" horiz-adv-x="645" 
d="M491 266l124 -20q-12 -120 -86.5 -190.5t-189.5 -70.5q-139 0 -221.5 99.5t-82.5 265.5q0 165 83 265t221 100q110 0 185 -68t89 -180l-123 -20q-13 74 -51.5 113.5t-99.5 39.5q-72 0 -118 -50t-57 -140h223v-107h-225q10 -96 56 -149.5t121 -53.5q64 0 103 42t49 124z
" />
    <glyph glyph-name="uni0405" unicode="&#x405;" horiz-adv-x="595" 
d="M318 -15q-127 0 -201.5 63t-91.5 183l123 25q13 -83 53 -120t119 -37q58 0 91.5 22.5t33.5 61.5q0 42 -34.5 69t-128.5 58q-124 41 -174 88.5t-50 123.5q0 85 64.5 139t167.5 54q101 0 172.5 -56t88.5 -149l-122 -26q-31 117 -139 117q-49 0 -78.5 -21.5t-29.5 -57.5
q0 -31 30 -52.5t113 -48.5q133 -45 189 -99t56 -138q0 -89 -69.5 -144t-182.5 -55z" />
    <glyph glyph-name="uni0406" unicode="&#x406;" horiz-adv-x="275" 
d="M75 0v700h125v-700h-125z" />
    <glyph glyph-name="uni0407" unicode="&#x407;" horiz-adv-x="275" 
d="M-20 750v116h118v-116h-118zM178 750v116h118v-116h-118zM75 0v700h125v-700h-125z" />
    <glyph glyph-name="uni0408" unicode="&#x408;" horiz-adv-x="540" 
d="M248 -15q-101 0 -159.5 55.5t-65.5 161.5l120 16q6 -63 30.5 -90.5t74.5 -27.5q97 0 97 129v471h125v-483q0 -106 -62 -169t-160 -63z" />
    <glyph glyph-name="uni0409" unicode="&#x409;" horiz-adv-x="1011" 
d="M709 467q116 0 186.5 -60.5t70.5 -171.5q0 -114 -70 -174.5t-186 -60.5h-241v585h-194l-5 -183q-3 -91 -11.5 -153t-23.5 -108.5t-41.5 -75t-62.5 -45.5t-89 -27l-29 111q43 8 66 21.5t39 48.5t22 87t10 148l10 291h434v-233h115zM704 115q137 0 137 121q0 119 -136 119
h-111v-240h110z" />
    <glyph glyph-name="uni040A" unicode="&#x40a;" horiz-adv-x="982" 
d="M680 426q117 0 187 -57.5t70 -153.5q0 -98 -69.5 -156.5t-186.5 -58.5h-243v311h-238v-311h-125v700h125v-274h238v274h124v-274h118zM675 115q66 0 101.5 26t35.5 74q0 100 -136 100h-114v-200h113z" />
    <glyph glyph-name="uni040B" unicode="&#x40b;" horiz-adv-x="780" 
d="M492 422q104 0 166 -58.5t62 -158.5v-205h-125v191q0 119 -126 119q-67 0 -128 -33v-277h-125v585h-188v115h541v-115h-228v-193q74 30 151 30z" />
    <glyph glyph-name="uni040C" unicode="&#x40c;" horiz-adv-x="612" 
d="M458 890l-115 -130h-100l85 130h130zM613 700l-272 -350l272 -350h-148l-221 295h-43v-295h-126v700h126v-295h43l219 295h150z" />
    <glyph glyph-name="uni040E" unicode="&#x40e;" horiz-adv-x="597" 
d="M301 750q-68 0 -106.5 36t-39.5 101h80q3 -71 66 -71t66 71h79q-1 -64 -39 -100.5t-106 -36.5zM463 700h136l-332 -700h-135l106 209l-235 491h134l161 -367h2z" />
    <glyph glyph-name="uni040F" unicode="&#x40f;" horiz-adv-x="657" 
d="M582 700v-700h-192v-155h-122v155h-193v700h125v-587h257v587h125z" />
    <glyph glyph-name="uni0410" unicode="&#x410;" 
d="M490 0l-41 120h-284l-41 -120h-126l252 700h115l251 -700h-126zM203 230h208l-103 297h-2z" />
    <glyph glyph-name="uni0411" unicode="&#x411;" horiz-adv-x="630" 
d="M363 426q102 0 169.5 -57t67.5 -156t-67.5 -156t-169.5 -57h-288v700h475v-115h-350v-159h163zM362 115q52 0 82.5 26.5t30.5 71.5t-30.5 71.5t-82.5 26.5h-162v-196h162z" />
    <glyph glyph-name="uni0412" unicode="&#x412;" horiz-adv-x="634" 
d="M75 0v700h292q91 0 148.5 -52t57.5 -134q0 -95 -75 -135v-2q47 -20 74 -63t27 -100q0 -214 -259 -214h-265zM200 415h148q100 0 100 86t-100 86h-148v-172zM200 113h155q62 0 90.5 24.5t28.5 77.5q0 98 -118 98h-156v-200z" />
    <glyph glyph-name="uni0413" unicode="&#x413;" horiz-adv-x="542" 
d="M75 0v700h438v-115h-313v-585h-125z" />
    <glyph glyph-name="uni0414" unicode="&#x414;" horiz-adv-x="699" 
d="M600 115h99v-270h-121v155h-456v-155h-120v270h43q53 19 71 76.5t24 217.5l10 291h450v-585zM475 115v470h-210l-5 -183q-4 -117 -16.5 -183t-40.5 -102v-2h272z" />
    <glyph glyph-name="uni0415" unicode="&#x415;" horiz-adv-x="560" 
d="M75 0v700h440v-115h-315v-171h287v-111h-287v-188h315v-115h-440z" />
    <glyph glyph-name="uni0416" unicode="&#x416;" horiz-adv-x="838" 
d="M839 700l-236 -350l236 -350h-142l-188 293h-28v-293h-125v293h-27l-188 -293h-143l237 350l-237 350h143l187 -292h28v292h125v-292h29l187 292h142z" />
    <glyph glyph-name="uni0417" unicode="&#x417;" horiz-adv-x="598" 
d="M313 -15q-119 0 -193 65t-87 183l122 23q11 -80 48.5 -118t109.5 -38q58 0 91 28.5t33 78.5q0 46 -33 71.5t-97 25.5h-88v102h79q55 0 88 27.5t33 73.5q0 44 -30.5 69.5t-82.5 25.5q-56 0 -92 -29t-45 -82l-123 21q14 93 85 148t175 55t171 -54.5t67 -139.5
q0 -107 -90 -154v-2q51 -19 80 -61.5t29 -96.5q0 -98 -69.5 -160t-180.5 -62z" />
    <glyph glyph-name="uni0418" unicode="&#x418;" horiz-adv-x="674" 
d="M599 0h-125v476h-2l-278 -476h-119v700h125v-476h2l278 476h119v-700z" />
    <glyph glyph-name="uni0419" unicode="&#x419;" horiz-adv-x="674" 
d="M337 750q-68 0 -106.5 36t-39.5 101h80q3 -71 66 -71t66 71h79q-1 -64 -39 -100.5t-106 -36.5zM599 0h-125v476h-2l-278 -476h-119v700h125v-476h2l278 476h119v-700z" />
    <glyph glyph-name="uni041A" unicode="&#x41a;" horiz-adv-x="612" 
d="M613 700l-272 -350l272 -350h-148l-221 295h-43v-295h-126v700h126v-295h43l219 295h150z" />
    <glyph glyph-name="uni041B" unicode="&#x41b;" horiz-adv-x="675" 
d="M160 700h440v-700h-125v585h-200l-5 -183q-3 -91 -11.5 -153t-23.5 -108.5t-41.5 -75t-62.5 -45.5t-89 -27l-29 111q43 8 66 21.5t39 48.5t22 87t10 148z" />
    <glyph glyph-name="uni041C" unicode="&#x41c;" horiz-adv-x="855" 
d="M75 0v700h144l207 -500h2l208 500h144v-700h-123v478h-2l-201 -478h-53l-201 478h-2v-478h-123z" />
    <glyph glyph-name="uni041D" unicode="&#x41d;" horiz-adv-x="657" 
d="M75 0v700h125v-284h257v284h125v-700h-125v302h-257v-302h-125z" />
    <glyph glyph-name="uni041E" unicode="&#x41e;" horiz-adv-x="677" 
d="M339 -15q-138 0 -221 100t-83 265t83 265t221 100q137 0 220 -100t83 -265t-83 -265t-220 -100zM339 100q83 0 130.5 67t47.5 183t-47.5 183t-130.5 67t-131 -67t-48 -183q0 -117 47.5 -183.5t131.5 -66.5z" />
    <glyph glyph-name="uni041F" unicode="&#x41f;" horiz-adv-x="647" 
d="M572 700v-700h-125v587h-247v-587h-125v700h497z" />
    <glyph glyph-name="uni0420" unicode="&#x420;" 
d="M75 0v700h281q111 0 175.5 -60.5t64.5 -164.5q0 -106 -64 -165t-177 -59h-155v-251h-125zM200 366h153q56 0 87 28.5t31 80.5q0 110 -118 110h-153v-219z" />
    <glyph glyph-name="uni0421" unicode="&#x421;" horiz-adv-x="645" 
d="M339 -15q-139 0 -221.5 99.5t-82.5 265.5q0 165 83 265t221 100q110 0 185 -68t89 -180l-123 -20q-13 74 -51.5 113.5t-99.5 39.5q-84 0 -131.5 -66.5t-47.5 -183.5t47.5 -183.5t131.5 -66.5q64 0 103 42t49 124l124 -20q-12 -120 -86.5 -190.5t-189.5 -70.5z" />
    <glyph glyph-name="uni0422" unicode="&#x422;" horiz-adv-x="597" 
d="M236 0v585h-208v115h541v-115h-208v-585h-125z" />
    <glyph glyph-name="uni0423" unicode="&#x423;" horiz-adv-x="597" 
d="M463 700h136l-332 -700h-135l106 209l-235 491h134l161 -367h2z" />
    <glyph glyph-name="uni0424" unicode="&#x424;" horiz-adv-x="830" 
d="M477 640q147 -4 232.5 -79.5t85.5 -205.5t-85.5 -205.5t-232.5 -79.5v-90h-125v90q-146 4 -231.5 79.5t-85.5 205.5t85.5 205.5t231.5 79.5v80h125v-80zM352 178v354q-91 0 -143 -47.5t-52 -129.5t52 -129.5t143 -47.5zM477 178q91 0 143.5 47t52.5 130t-52.5 130
t-143.5 47v-354z" />
    <glyph glyph-name="uni0425" unicode="&#x425;" horiz-adv-x="592" 
d="M3 0l219 355l-213 345h142l144 -252h2l144 252h142l-214 -345l219 -355h-141l-150 262h-2l-150 -262h-142z" />
    <glyph glyph-name="uni0426" unicode="&#x426;" horiz-adv-x="681" 
d="M582 113h99v-268h-121v155h-485v700h125v-587h257v587h125v-587z" />
    <glyph glyph-name="uni0427" unicode="&#x427;" horiz-adv-x="632" 
d="M432 700h125v-700h-125v287q-71 -29 -144 -29q-104 0 -166 58.5t-62 158.5v225h125v-211q0 -119 126 -119q66 0 121 32v298z" />
    <glyph glyph-name="uni0428" unicode="&#x428;" horiz-adv-x="903" 
d="M706 700h122v-700h-753v700h122v-587h195v587h119v-587h195v587z" />
    <glyph glyph-name="uni0429" unicode="&#x429;" horiz-adv-x="926" 
d="M828 113h98v-268h-120v155h-731v700h122v-587h195v587h119v-587h195v587h122v-587z" />
    <glyph glyph-name="uni042A" unicode="&#x42a;" horiz-adv-x="736" 
d="M434 467q116 0 186.5 -60.5t70.5 -171.5q0 -114 -70 -174.5t-186 -60.5h-255v585h-152v115h277v-233h129zM429 115q137 0 137 121q0 119 -137 119h-124v-240h124z" />
    <glyph glyph-name="uni042B" unicode="&#x42b;" horiz-adv-x="879" 
d="M329 467q116 0 186.5 -60.5t70.5 -171.5q0 -114 -70 -174.5t-186 -60.5h-255v700h125v-233h129zM679 700h125v-700h-125v700zM324 115q137 0 137 121q0 119 -137 119h-124v-240h124z" />
    <glyph glyph-name="uni042C" unicode="&#x42c;" horiz-adv-x="631" 
d="M329 467q116 0 186.5 -60.5t70.5 -171.5q0 -114 -70 -174.5t-186 -60.5h-255v700h125v-233h129zM324 115q137 0 137 121q0 119 -137 119h-124v-240h124z" />
    <glyph glyph-name="uni042D" unicode="&#x42d;" horiz-adv-x="645" 
d="M306 715q138 0 221 -100t83 -265q0 -166 -82.5 -265.5t-221.5 -99.5q-115 0 -189.5 70.5t-86.5 190.5l124 20q10 -82 49 -124t103 -42q75 0 121 53.5t56 149.5h-225v107h223q-11 90 -57 140t-118 50q-61 0 -99.5 -39.5t-51.5 -113.5l-123 20q14 112 89 180t185 68z" />
    <glyph glyph-name="uni042E" unicode="&#x42e;" horiz-adv-x="913" 
d="M580 715q134 0 216 -100t82 -265t-82 -265t-216 -100q-125 0 -205 86t-92 231h-83v-302h-125v700h125v-284h85q16 138 95 218.5t200 80.5zM580 100q80 0 126 67t46 183t-46 183t-126 67q-81 0 -127.5 -67t-46.5 -183q0 -117 46 -183.5t128 -66.5z" />
    <glyph glyph-name="uni042F" unicode="&#x42f;" horiz-adv-x="617" 
d="M268 700h274v-700h-125v260h-96l-150 -260h-137l158 268v2q-76 19 -118.5 74.5t-42.5 136.5q0 102 63.5 160.5t173.5 58.5zM417 375v210h-135q-126 0 -126 -104q0 -106 126 -106h135z" />
    <glyph glyph-name="uni0430" unicode="&#x430;" horiz-adv-x="518" 
d="M213 -15q-79 0 -126.5 42.5t-47.5 113.5q0 67 43.5 106t145.5 63q67 17 92 32t25 40q0 28 -22.5 44t-62.5 16q-45 0 -74.5 -25t-37.5 -69l-113 24q13 78 74.5 125.5t150.5 47.5q96 0 152 -51.5t56 -140.5v-353h-109v46h-2q-42 -61 -144 -61zM233 89q52 0 84.5 25t32.5 65
v91h-2q-14 -27 -92 -49q-55 -14 -78 -30.5t-23 -41.5q0 -60 78 -60z" />
    <glyph glyph-name="uni0431" unicode="&#x431;" horiz-adv-x="593" 
d="M316 503q106 0 174 -72t68 -187q0 -118 -70.5 -188t-186.5 -70q-122 0 -194 77t-72 211q0 221 67.5 321t229.5 122q108 15 171 40l39 -100q-61 -28 -189 -44q-88 -12 -131 -49t-58 -118h2q57 57 150 57zM301 91q65 0 101 40.5t36 115.5q0 76 -36 116.5t-100 40.5
q-65 0 -101.5 -40.5t-36.5 -116.5q0 -74 36.5 -115t100.5 -41z" />
    <glyph glyph-name="uni0432" unicode="&#x432;" horiz-adv-x="528" 
d="M55 0v530h245q80 0 130.5 -39.5t50.5 -102.5q0 -69 -65 -101v-2q40 -16 63.5 -48.5t23.5 -74.5q0 -162 -226 -162h-222zM174 320h107q81 0 81 55q0 53 -81 53h-107v-108zM174 102h114q96 0 96 64q0 62 -96 62h-114v-126z" />
    <glyph glyph-name="uni0433" unicode="&#x433;" horiz-adv-x="421" 
d="M55 0v530h348v-110h-228v-420h-120z" />
    <glyph glyph-name="uni0434" unicode="&#x434;" horiz-adv-x="579" 
d="M503 111h71v-228h-111v117h-350v-117h-111v228h40q37 15 50 58t17 157l8 204h386v-419zM223 319q-3 -90 -11.5 -135.5t-33.5 -72.5h205v308h-156z" />
    <glyph glyph-name="uni0435" unicode="&#x435;" horiz-adv-x="562" 
d="M284 -15q-111 0 -180 77.5t-69 202.5q0 124 68.5 202t178.5 78t177.5 -75.5t67.5 -198.5v-41h-371q3 -64 37.5 -102.5t90.5 -38.5q44 0 76.5 20.5t62.5 66.5l88 -64q-73 -127 -227 -127zM157 318h251q-3 56 -36 89.5t-89 33.5q-52 0 -87.5 -35t-38.5 -88z" />
    <glyph glyph-name="uni0436" unicode="&#x436;" horiz-adv-x="704" 
d="M706 530l-189 -261l189 -269h-140l-135 210h-23v-210h-112v210h-23l-135 -210h-140l189 269l-189 261h139l136 -207h23v207h112v-207h23l136 207h139z" />
    <glyph glyph-name="uni0437" unicode="&#x437;" horiz-adv-x="506" 
d="M257 -15q-100 0 -161.5 50t-73.5 141l118 21q15 -109 117 -109q45 0 69 19t24 52q0 67 -98 67h-68v84h65q41 0 65.5 18t24.5 48t-23 48t-63 18q-42 0 -69.5 -21t-34.5 -59l-117 18q10 74 72 119.5t149 45.5q90 0 146.5 -43.5t56.5 -112.5q0 -78 -75 -115v-2
q43 -15 66.5 -48t23.5 -74q0 -73 -58.5 -119t-155.5 -46z" />
    <glyph glyph-name="uni0438" unicode="&#x438;" horiz-adv-x="552" 
d="M497 0h-120v340h-2l-199 -340h-121v530h120v-340h1l199 340h122v-530z" />
    <glyph glyph-name="uni0439" unicode="&#x439;" horiz-adv-x="552" 
d="M275 580q-68 0 -106.5 36t-39.5 101h80q3 -71 66 -71t66 71h79q-1 -64 -39 -100.5t-106 -36.5zM497 0h-120v340h-2l-199 -340h-121v530h120v-340h1l199 340h122v-530z" />
    <glyph glyph-name="uni043A" unicode="&#x43a;" horiz-adv-x="508" 
d="M510 530l-217 -265l217 -265h-141l-161 205h-33v-205h-120v530h120v-205h31l161 205h143z" />
    <glyph glyph-name="uni043B" unicode="&#x43b;" horiz-adv-x="553" 
d="M131 530h367v-530h-120v419h-137l-4 -100q-3 -66 -7.5 -108t-17 -83t-33 -65t-54.5 -42.5t-83 -27.5l-29 106q67 13 86 52.5t24 174.5z" />
    <glyph glyph-name="uni043C" unicode="&#x43c;" horiz-adv-x="698" 
d="M55 0v530h140l153 -360h2l153 360h140v-530h-119v337h-1l-146 -337h-56l-145 337h-2v-337h-119z" />
    <glyph glyph-name="uni043D" unicode="&#x43d;" horiz-adv-x="551" 
d="M55 0v530h120v-203h201v203h120v-530h-120v215h-201v-215h-120z" />
    <glyph glyph-name="uni043E" unicode="&#x43e;" horiz-adv-x="585" 
d="M292 -15q-115 0 -186 77.5t-71 202.5t71 202.5t186 77.5t186.5 -77.5t71.5 -202.5t-71.5 -202.5t-186.5 -77.5zM292 95q65 0 101.5 45.5t36.5 124.5t-36.5 124.5t-101.5 45.5q-64 0 -100.5 -45t-36.5 -125t36.5 -125t100.5 -45z" />
    <glyph glyph-name="uni043F" unicode="&#x43f;" horiz-adv-x="551" 
d="M496 530v-530h-120v418h-201v-418h-120v530h441z" />
    <glyph glyph-name="uni0440" unicode="&#x440;" horiz-adv-x="592" 
d="M55 -225v755h117v-42h2q55 57 145 57q104 0 171 -78.5t67 -201.5t-66.5 -201.5t-170.5 -78.5q-93 0 -143 57h-2v-267h-120zM300 95q64 0 100.5 45.5t36.5 124.5t-36 124.5t-99 45.5q-55 0 -91 -36.5t-36 -90.5v-85q0 -55 36 -91.5t89 -36.5z" />
    <glyph glyph-name="uni0441" unicode="&#x441;" horiz-adv-x="556" 
d="M288 -15q-112 0 -182.5 77.5t-70.5 202.5t70.5 202.5t182.5 77.5q95 0 159 -53.5t79 -144.5l-115 -21q-9 53 -41 81t-82 28q-61 0 -97 -46t-36 -124t36 -124t97 -46q50 0 82 28t41 81l115 -21q-15 -91 -79 -144.5t-159 -53.5z" />
    <glyph glyph-name="uni0442" unicode="&#x442;" horiz-adv-x="483" 
d="M181 0v420h-163v110h446v-110h-163v-420h-120z" />
    <glyph glyph-name="uni0443" unicode="&#x443;" horiz-adv-x="536" 
d="M101 -225l109 255l-207 500h125l139 -357h2l140 357h124l-309 -755h-123z" />
    <glyph glyph-name="uni0444" unicode="&#x444;" horiz-adv-x="714" 
d="M413 540q117 -5 191.5 -81.5t74.5 -193.5t-74.5 -193.5t-191.5 -81.5v-215h-112v215q-117 5 -191.5 81.5t-74.5 193.5t74.5 193.5t191.5 81.5v160h112v-160zM301 94v342q-65 -2 -107 -47.5t-42 -123.5t42 -123.5t107 -47.5zM413 94q65 2 107.5 47t42.5 124t-42.5 124
t-107.5 47v-342z" />
    <glyph glyph-name="uni0445" unicode="&#x445;" horiz-adv-x="512" 
d="M-2 0l185 269l-180 261h141l111 -173h2l110 173h142l-181 -261l185 -269h-141l-115 180h-2l-115 -180h-142z" />
    <glyph glyph-name="uni0446" unicode="&#x446;" horiz-adv-x="567" 
d="M491 112h71v-228h-115v116h-392v530h120v-418h196v418h120v-418z" />
    <glyph glyph-name="uni0447" unicode="&#x447;" horiz-adv-x="523" 
d="M348 530h120v-530h-120v199q-54 -20 -117 -20q-87 0 -139 45.5t-52 122.5v183h120v-170q0 -74 94 -74q46 0 94 20v224z" />
    <glyph glyph-name="uni0448" unicode="&#x448;" horiz-adv-x="797" 
d="M625 530h117v-530h-687v530h117v-421h169v421h114v-421h170v421z" />
    <glyph glyph-name="uni0449" unicode="&#x449;" horiz-adv-x="818" 
d="M742 112h71v-228h-115v116h-643v530h117v-421h169v421h114v-421h170v421h117v-418z" />
    <glyph glyph-name="uni044A" unicode="&#x44a;" horiz-adv-x="613" 
d="M368 365q96 0 153 -47.5t57 -133.5q0 -87 -57 -135.5t-153 -48.5h-223v419h-127v111h247v-165h103zM362 103q96 0 96 81t-96 81h-97v-162h97z" />
    <glyph glyph-name="uni044B" unicode="&#x44b;" horiz-adv-x="737" 
d="M278 365q96 0 153 -47.5t57 -133.5q0 -87 -57 -135.5t-153 -48.5h-223v530h120v-165h103zM562 530h120v-530h-120v530zM272 103q96 0 96 81t-96 81h-97v-162h97z" />
    <glyph glyph-name="uni044C" unicode="&#x44c;" horiz-adv-x="523" 
d="M278 365q96 0 153 -47.5t57 -133.5q0 -87 -57 -135.5t-153 -48.5h-223v530h120v-165h103zM272 103q96 0 96 81t-96 81h-97v-162h97z" />
    <glyph glyph-name="uni044D" unicode="&#x44d;" horiz-adv-x="556" 
d="M268 545q112 0 182.5 -77.5t70.5 -202.5t-70.5 -202.5t-182.5 -77.5q-95 0 -159 53.5t-79 144.5l112 19q9 -53 42 -81.5t84 -28.5q56 0 92 36.5t42 99.5h-193v88h191q-9 57 -44 89.5t-88 32.5q-50 0 -83 -28.5t-43 -81.5l-112 19q15 91 79 144.5t159 53.5z" />
    <glyph glyph-name="uni044E" unicode="&#x44e;" horiz-adv-x="766" 
d="M478 545q113 0 183 -77.5t70 -202.5t-70 -202.5t-183 -77.5q-101 0 -169 63.5t-81 169.5h-53v-218h-120v530h120v-203h55q17 100 83.5 159t164.5 59zM478 95q62 0 97.5 45t35.5 125t-35.5 125t-97.5 45t-97.5 -45.5t-35.5 -124.5t35.5 -124.5t97.5 -45.5z" />
    <glyph glyph-name="uni044F" unicode="&#x44f;" horiz-adv-x="512" 
d="M218 530h239v-530h-120v178h-76l-112 -178h-129l124 188v1q-57 17 -88.5 60.5t-31.5 105.5q0 83 51 129t143 46zM337 278v150h-105q-88 0 -88 -75t88 -75h105z" />
    <glyph glyph-name="uni0451" unicode="&#x451;" horiz-adv-x="562" 
d="M124 595v116h118v-116h-118zM322 595v116h118v-116h-118zM284 -15q-111 0 -180 77.5t-69 202.5q0 124 68.5 202t178.5 78t177.5 -75.5t67.5 -198.5v-41h-371q3 -64 37.5 -102.5t90.5 -38.5q44 0 76.5 20.5t62.5 66.5l88 -64q-73 -127 -227 -127zM157 318h251
q-3 56 -36 89.5t-89 33.5q-52 0 -87.5 -35t-38.5 -88z" />
    <glyph glyph-name="uni0452" unicode="&#x452;" horiz-adv-x="566" 
d="M318 545q89 0 143.5 -54.5t54.5 -143.5v-398q0 -76 -38 -108.5t-122 -32.5h-44v111h44q21 0 30.5 9t9.5 31v362q0 53 -28.5 82.5t-80.5 29.5t-82 -30.5t-30 -81.5v-321h-120v585h-57v84h57v61h120v-61h161v-84h-161v-102h2q23 29 60.5 45.5t80.5 16.5z" />
    <glyph glyph-name="uni0453" unicode="&#x453;" horiz-adv-x="421" 
d="M168 590l85 130h130l-115 -130h-100zM55 0v530h348v-110h-228v-420h-120z" />
    <glyph glyph-name="uni0454" unicode="&#x454;" horiz-adv-x="556" 
d="M288 92q51 0 84 28.5t42 81.5l112 -19q-15 -91 -79 -144.5t-159 -53.5q-112 0 -182.5 77.5t-70.5 202.5t70.5 202.5t182.5 77.5q95 0 159 -53.5t79 -144.5l-112 -19q-10 53 -43 81.5t-83 28.5q-53 0 -88 -32.5t-44 -89.5h191v-88h-193q6 -63 42 -99.5t92 -36.5z" />
    <glyph glyph-name="uni0455" unicode="&#x455;" horiz-adv-x="500" 
d="M268 -15q-101 0 -164.5 49t-78.5 140l109 28q13 -60 44.5 -87.5t89.5 -27.5q43 0 68 14.5t25 39.5q0 31 -29.5 49.5t-96.5 38.5q-91 26 -137 59.5t-46 99.5q0 68 55.5 112.5t139.5 44.5q80 0 140 -43t78 -113l-110 -31q-27 85 -108 85q-37 0 -59 -14.5t-22 -38.5
q0 -21 25 -34.5t81 -29.5q47 -14 78.5 -26.5t62.5 -33t46.5 -50.5t15.5 -70q0 -73 -56.5 -117t-150.5 -44z" />
    <glyph glyph-name="uni0456" unicode="&#x456;" horiz-adv-x="230" 
d="M52 620v121h126v-121h-126zM55 0v530h120v-530h-120z" />
    <glyph glyph-name="uni0457" unicode="&#x457;" horiz-adv-x="230" 
d="M0 620v121h91v-121h-91zM139 620v121h91v-121h-91zM55 0v530h120v-530h-120z" />
    <glyph glyph-name="uni0458" unicode="&#x458;" horiz-adv-x="246" 
d="M68 620v121h126v-121h-126zM-27 -192v111h51q26 0 36.5 8.5t10.5 29.5v573h120v-577q0 -77 -38 -111t-121 -34h-59z" />
    <glyph glyph-name="uni0459" unicode="&#x459;" horiz-adv-x="820" 
d="M574 365q96 0 153.5 -47.5t57.5 -133.5q0 -87 -57.5 -135.5t-153.5 -48.5h-206v419h-127l-4 -100q-3 -66 -7.5 -108t-17 -83t-33 -65t-54.5 -42.5t-83 -27.5l-29 106q67 13 86 52.5t24 174.5l8 204h357v-165h86zM569 103q96 0 96 81t-96 81h-81v-162h81z" />
    <glyph glyph-name="uni045A" unicode="&#x45a;" horiz-adv-x="827" 
d="M588 345q92 0 148 -46t56 -125q0 -80 -56 -127t-148 -47h-219v238h-194v-238h-120v530h120v-185h194v185h120v-185h99zM582 103q90 0 90 71t-90 71h-93v-142h93z" />
    <glyph glyph-name="uni045B" unicode="&#x45b;" horiz-adv-x="566" 
d="M318 545q89 0 143.5 -54.5t54.5 -143.5v-347h-120v321q0 53 -28.5 82.5t-80.5 29.5t-82 -30.5t-30 -81.5v-321h-120v585h-57v84h57v61h120v-61h161v-84h-161v-102h2q23 29 60.5 45.5t80.5 16.5z" />
    <glyph glyph-name="uni045C" unicode="&#x45c;" horiz-adv-x="508" 
d="M416 720l-115 -130h-100l85 130h130zM510 530l-217 -265l217 -265h-141l-161 205h-33v-205h-120v530h120v-205h31l161 205h143z" />
    <glyph glyph-name="uni045E" unicode="&#x45e;" horiz-adv-x="536" 
d="M268 580q-68 0 -106.5 36t-39.5 101h80q3 -71 66 -71t66 71h79q-1 -64 -39 -100.5t-106 -36.5zM101 -225l109 255l-207 500h125l139 -357h2l140 357h124l-309 -755h-123z" />
    <glyph glyph-name="uni045F" unicode="&#x45f;" horiz-adv-x="546" 
d="M491 530v-530h-161v-116h-114v116h-161v530h120v-418h196v418h120z" />
    <glyph glyph-name="uni0490" unicode="&#x490;" horiz-adv-x="532" 
d="M378 855h125v-270h-303v-585h-125v700h303v155z" />
    <glyph glyph-name="uni0491" unicode="&#x491;" horiz-adv-x="426" 
d="M288 640h120v-220h-233v-420h-120v530h233v110z" />
    <glyph glyph-name="uni0492" unicode="&#x492;" horiz-adv-x="565" 
d="M526 585h-313v-196h175v-97h-175v-292h-125v292h-91v97h91v311h438v-115z" />
    <glyph glyph-name="uni0493" unicode="&#x493;" horiz-adv-x="434" 
d="M406 420h-228v-133h139v-89h-139v-198h-120v198h-60v89h60v243h348v-110z" />
    <glyph glyph-name="uni049A" unicode="&#x49a;" horiz-adv-x="629" 
d="M525 113h105v-275h-120v162h-45l-223 295h-41v-295h-126v700h126v-295h45l217 295h150l-271 -351z" />
    <glyph glyph-name="uni049B" unicode="&#x49b;" horiz-adv-x="512" 
d="M431 112h83v-228h-115v116h-10l-179 205h-35v-205h-120v530h120v-205h32l160 205h143l-218 -265z" />
    <glyph glyph-name="uni04A2" unicode="&#x4a2;" horiz-adv-x="681" 
d="M582 113h99v-275h-121v162h-103v302h-257v-302h-125v700h125v-284h257v284h125v-587z" />
    <glyph glyph-name="uni04A3" unicode="&#x4a3;" horiz-adv-x="572" 
d="M496 112h71v-228h-115v116h-76v215h-201v-215h-120v530h120v-203h201v203h120v-418z" />
    <glyph glyph-name="uni04AE" unicode="&#x4ae;" horiz-adv-x="587" 
d="M231 0v287l-238 413h136l163 -301h2l163 301h136l-237 -413v-287h-125z" />
    <glyph glyph-name="uni04AF" unicode="&#x4af;" horiz-adv-x="561" 
d="M557 530l-217 -530v-225h-120v225l-217 530h128l148 -383h2l148 383h128z" />
    <glyph glyph-name="uni04B0" unicode="&#x4b0;" horiz-adv-x="587" 
d="M593 700l-237 -413h158v-93h-158v-194h-125v194h-159v93h159l-238 413h136l163 -301h2l163 301h136z" />
    <glyph glyph-name="uni04B1" unicode="&#x4b1;" horiz-adv-x="561" 
d="M557 530l-217 -530h142v-93h-142v-132h-120v132h-140v93h140l-217 530h128l148 -383h2l148 383h128z" />
    <glyph glyph-name="uni04BA" unicode="&#x4ba;" horiz-adv-x="632" 
d="M344 442q104 0 166 -58.5t62 -158.5v-225h-125v211q0 119 -126 119q-66 0 -121 -32v-298h-125v700h125v-287q71 29 144 29z" />
    <glyph glyph-name="uni04BB" unicode="&#x4bb;" horiz-adv-x="566" 
d="M55 0v730h120v-247h2q23 29 60.5 45.5t80.5 16.5q89 0 143.5 -54.5t54.5 -143.5v-347h-120v321q0 53 -28.5 82.5t-80.5 29.5t-82 -30.5t-30 -81.5v-321h-120z" />
    <glyph glyph-name="uni04D8" unicode="&#x4d8;" horiz-adv-x="665" 
d="M332 -15q-139 0 -218 97t-79 268v46h468q-5 95 -51 149.5t-120 54.5q-116 0 -160 -124l-117 41q36 95 108 146.5t169 51.5q137 0 217.5 -99t80.5 -268q0 -167 -80.5 -265t-217.5 -98zM332 100q72 0 117 50.5t54 140.5h-338q4 -90 48.5 -140.5t118.5 -50.5z" />
    <glyph glyph-name="uni04D9" unicode="&#x4d9;" horiz-adv-x="562" 
d="M279 -15q-109 0 -176.5 76t-67.5 198v41h370q-2 64 -36.5 102.5t-90.5 38.5q-44 0 -76.5 -20.5t-62.5 -66.5l-91 61q77 130 229 130q112 0 181 -77.5t69 -202.5q0 -124 -69 -202t-179 -78zM279 89q52 0 87.5 35t38.5 88h-252q4 -56 37.5 -89.5t88.5 -33.5z" />
    <glyph glyph-name="uni04E8" unicode="&#x4e8;" horiz-adv-x="677" 
d="M339 715q137 0 220 -100t83 -265t-83 -265t-220 -100q-138 0 -221 100t-83 265t83 265t221 100zM339 600q-76 0 -123.5 -53t-52.5 -151h351q-5 98 -52 151t-123 53zM339 100q73 0 119.5 49t54.5 141h-349q8 -92 54.5 -141t120.5 -49z" />
    <glyph glyph-name="uni04E9" unicode="&#x4e9;" horiz-adv-x="585" 
d="M292 545q115 0 186.5 -77.5t71.5 -202.5t-71.5 -202.5t-186.5 -77.5t-186 77.5t-71 202.5t71 202.5t186 77.5zM292 445q-59 0 -98.5 -35.5t-44.5 -97.5h287q-5 62 -45 97.5t-99 35.5zM292 85q62 0 101.5 37t43.5 101h-289q4 -65 43 -101.5t101 -36.5z" />
    </font>
</defs>
</svg>
